<svg width="24" height="24" viewBox="0 0 24 24" fill="none" xmlns="http://www.w3.org/2000/svg">
<path fill-rule="evenodd" clip-rule="evenodd" d="M15.6021 2.42216C15.3823 2.20239 15.1058 2.21205 14.9542 2.23217C14.8108 2.25119 14.6391 2.30006 14.4755 2.34661L14.3495 2.38242L14.2471 2.31779C14.1085 2.23026 13.9596 2.13623 13.8272 2.07867C13.6778 2.01375 13.4257 1.93989 13.1608 2.07911C12.901 2.21567 12.8154 2.46014 12.7801 2.61571C12.7479 2.75726 12.7341 2.93427 12.7211 3.10261L12.7111 3.23012L12.7103 3.24075L12.5987 3.33259C12.4654 3.44226 12.3271 3.55608 12.229 3.66333C12.125 3.77695 11.9648 3.99043 12.0055 4.28767C12.0476 4.59506 12.2702 4.75445 12.4093 4.83159C12.5353 4.90144 12.701 4.96261 12.8556 5.01961L12.9644 5.05983L13.0046 5.1687C13.0616 5.3232 13.1228 5.489 13.1927 5.61495C13.2698 5.75405 13.4292 5.97665 13.7366 6.01874C14.0338 6.05944 14.2473 5.8992 14.3609 5.79528C14.4682 5.69717 14.582 5.55884 14.6917 5.42554L14.7835 5.31397L14.7941 5.31313L14.9216 5.30319C15.09 5.29011 15.267 5.27635 15.4085 5.24417C15.5641 5.2088 15.8086 5.12329 15.9451 4.86346C16.0844 4.59857 16.0105 4.34645 15.9456 4.19709C15.888 4.06467 15.794 3.9158 15.7065 3.77723L15.6418 3.67478L15.6776 3.54877C15.7242 3.38517 15.7731 3.21343 15.7921 3.07009C15.8122 2.91841 15.8219 2.64192 15.6021 2.42216Z" fill="#56686E"/>
<path d="M10.1867 2.16086C10.5401 2.37691 10.6515 2.83855 10.4354 3.19195C10.2786 3.4484 10.3179 3.77887 10.5305 3.99141L10.6283 4.08929C11.217 4.67794 11.4341 5.54272 11.1932 6.33959C11.0733 6.73609 10.6548 6.96035 10.2583 6.8405C9.86176 6.72065 9.6375 6.30207 9.75735 5.90557C9.83823 5.63799 9.76534 5.34761 9.56768 5.14995L9.4698 5.05207C8.76728 4.34954 8.6374 3.25724 9.15561 2.40957C9.37166 2.05617 9.83329 1.94482 10.1867 2.16086Z" fill="#56686E"/>
<path d="M21.4091 13.5812C21.0474 13.4231 20.6268 13.4895 20.3314 13.7514C19.5221 14.469 18.3445 14.5883 17.4078 14.0475L17.195 13.9246C16.8362 13.7175 16.7133 13.2588 16.9204 12.9001C17.1275 12.5414 17.5862 12.4185 17.945 12.6256L18.1578 12.7484C18.5353 12.9664 19.01 12.9184 19.3362 12.6291C20.069 11.9793 21.1126 11.8145 22.0101 12.2068L22.3015 12.3343C22.6811 12.5002 22.8542 12.9424 22.6883 13.3219C22.5223 13.7015 22.0801 13.8746 21.7006 13.7087L21.4091 13.5812Z" fill="#56686E"/>
<path d="M12.9164 7.17886C12.7069 6.96939 12.3673 6.96939 12.1578 7.17886C11.9484 7.38833 11.9484 7.72794 12.1578 7.93741C12.3673 8.14688 12.7069 8.14688 12.9164 7.93741C13.1258 7.72794 13.1258 7.38833 12.9164 7.17886Z" fill="#56686E"/>
<path fill-rule="evenodd" clip-rule="evenodd" d="M22.5243 8.86413C22.7802 9.41804 22.6075 10.0469 22.1404 10.514C21.8695 10.7849 21.5065 10.9076 21.1832 10.9651C20.8525 11.0239 20.503 11.0251 20.1967 11.0055C19.8875 10.9857 19.6039 10.9434 19.3989 10.9066C19.2958 10.888 19.2113 10.8707 19.1517 10.8577C19.1219 10.8512 19.0983 10.8458 19.0816 10.8419L19.0618 10.8372L19.056 10.8358L19.0542 10.8354L19.0531 10.8351C18.873 10.7905 18.7324 10.65 18.6878 10.4699L19.1732 10.3498C18.6878 10.4699 18.6876 10.4688 18.6876 10.4688L18.6871 10.4669L18.6857 10.4611L18.681 10.4414C18.6771 10.4247 18.6717 10.401 18.6653 10.3712C18.6523 10.3116 18.6349 10.2271 18.6164 10.1241C18.5796 9.91903 18.5373 9.63546 18.5175 9.32621C18.4979 9.01997 18.499 8.6704 18.5579 8.3397C18.6153 8.01644 18.738 7.65342 19.0089 7.38255C19.4761 6.91541 20.1049 6.74275 20.6588 6.9986C21.079 7.19268 21.3523 7.58545 21.4552 8.06775C21.9375 8.17067 22.3303 8.44396 22.5243 8.86413Z" fill="#56686E"/>
<g opacity="0.5">
<path d="M17.6899 4.74356C18.0961 4.82479 18.3595 5.21991 18.2783 5.62608L18.1343 6.34602C17.9361 7.33683 17.2223 8.1455 16.2637 8.46503C15.8158 8.61434 15.4822 8.99221 15.3896 9.45519L15.2456 10.1751C15.1644 10.5813 14.7692 10.8447 14.3631 10.7635C13.9569 10.6822 13.6935 10.2871 13.7747 9.88095L13.9187 9.16102C14.1169 8.1702 14.8307 7.36153 15.7893 7.042C16.2373 6.8927 16.5708 6.51483 16.6634 6.05184L16.8074 5.33191C16.8886 4.92574 17.2838 4.66232 17.6899 4.74356Z" fill="#56686E"/>
<path d="M6.92859 3.96277C7.13805 3.7533 7.47767 3.7533 7.68714 3.96277C7.89661 4.17223 7.89661 4.51185 7.68714 4.72132C7.47767 4.93079 7.13805 4.93079 6.92859 4.72132C6.71912 4.51185 6.71912 4.17223 6.92859 3.96277Z" fill="#56686E"/>
</g>
<path opacity="0.7" d="M19.817 15.3353C19.6076 15.1259 19.2679 15.1259 19.0585 15.3353C18.849 15.5448 18.849 15.8844 19.0585 16.0939C19.2679 16.3033 19.6076 16.3033 19.817 16.0939C20.0265 15.8844 20.0265 15.5448 19.817 15.3353Z" fill="#56686E"/>
<path opacity="0.2" d="M17.1581 10.1791C17.3675 9.9696 17.7072 9.9696 17.9166 10.1791C18.1261 10.3885 18.1261 10.7282 17.9166 10.9376C17.7072 11.1471 17.3675 11.1471 17.1581 10.9376C16.9486 10.7282 16.9486 10.3885 17.1581 10.1791Z" fill="#56686E"/>
<path fill-rule="evenodd" clip-rule="evenodd" d="M4.01207 15.7618L5.70156 10.6933C6.33375 8.79674 6.70507 7.68279 7.32493 7.23119L7.31964 7.25736C7.31242 7.29328 7.30199 7.34575 7.28885 7.41325C7.26258 7.54824 7.22547 7.74345 7.18165 7.98662C7.09406 8.47264 6.97937 9.15184 6.87078 9.92573C6.65564 11.4589 6.45638 13.4179 6.55904 14.9834C6.62115 15.9306 6.81822 17.1057 6.9941 18.0238C7.08286 18.4872 7.16784 18.8933 7.23066 19.1838C7.26209 19.3291 7.28803 19.4457 7.30619 19.5264L7.32733 19.6195L7.333 19.6441L7.33493 19.6525L7.47191 20.2412C7.68531 20.1708 7.90824 20.0966 8.14115 20.019L8.23717 19.987L8.90132 19.7656L8.79453 19.3066L8.78944 19.2845L8.76953 19.1968C8.75221 19.1199 8.7272 19.0075 8.69676 18.8667C8.63584 18.585 8.55336 18.1909 8.46732 17.7416C8.29357 16.8346 8.11155 15.7351 8.05582 14.8852C7.96377 13.4814 8.1436 11.6495 8.35623 10.1342C8.46152 9.38377 8.57288 8.72427 8.65787 8.25265C8.70034 8.017 8.73615 7.82867 8.76123 7.69981C8.77376 7.63539 8.78361 7.58587 8.79026 7.55277L8.79777 7.51563L8.7996 7.50665L8.8001 7.50424L8.85072 7.25922C8.45761 7.02857 8.111 6.94867 7.75679 7.03229C7.61235 7.06638 7.4812 7.12423 7.35967 7.2067C7.34804 7.2146 7.3364 7.22279 7.32494 7.23114L7.32493 7.23119C7.33644 7.2228 7.34804 7.21464 7.35973 7.20671C7.48125 7.12424 7.6124 7.06639 7.75684 7.03229C8.6631 6.81835 9.51952 7.67477 11.2324 9.38761L11.2324 9.38764L11.7356 9.89081L11.5236 10.5285L11.523 10.5303L11.521 10.5364L11.5139 10.5582C11.5078 10.5769 11.4991 10.6038 11.4882 10.6382C11.4664 10.7071 11.4355 10.806 11.3987 10.9291C11.3251 11.1748 11.2271 11.5185 11.1289 11.9117C10.9368 12.6809 10.7275 13.7032 10.7275 14.555C10.7275 15.4068 10.9368 16.4291 11.1289 17.1983C11.2271 17.5915 11.3251 17.9352 11.3987 18.1809C11.4355 18.304 11.4664 18.4029 11.4882 18.4718C11.4991 18.5062 11.5078 18.5331 11.5139 18.5518L11.521 18.5736L11.523 18.5796L11.5239 18.5824L11.6163 18.8604L13.0394 18.3861L12.9472 18.1088L12.9459 18.105L12.9404 18.0879C12.9353 18.0725 12.9277 18.0489 12.9179 18.018C12.8983 17.9562 12.8699 17.8652 12.8357 17.7508C12.7671 17.5216 12.6756 17.2007 12.5842 16.8349C12.3972 16.0861 12.2275 15.2129 12.2275 14.555C12.2275 13.8971 12.3972 13.0239 12.5842 12.2751C12.6756 11.9093 12.7671 11.5884 12.8357 11.3592C12.8699 11.2448 12.8983 11.1538 12.9179 11.092L12.9225 11.0777L14.6114 12.7666L14.6121 12.7673L14.6121 12.7673C16.3244 14.4797 17.1807 15.336 16.9667 16.2422C16.7528 17.1484 15.6039 17.5314 13.306 18.2974L13.3057 18.2975L8.23724 19.987C5.47183 20.9088 4.08912 21.3697 3.35924 20.6398C2.62936 19.9099 3.09026 18.5272 4.01207 15.7618ZM12.9225 11.0777L11.7356 9.89081L11.7356 9.89062L12.9225 11.0775L12.9225 11.0777ZM8.0656 19.4833L7.33493 19.6525C7.33494 19.6526 7.33512 19.6533 8.0656 19.4833Z" fill="#56686E"/>
</svg>
