<svg width="24" height="24" viewBox="0 0 24 24" fill="none" xmlns="http://www.w3.org/2000/svg">
<g clip-path="url(#clip0_989_7675)">
<path fill-rule="evenodd" clip-rule="evenodd" d="M6.4186 3.76746H10.8837C12.9886 3.76746 14.041 3.76746 14.6949 4.42136C15.3488 5.07526 15.3488 6.12769 15.3488 8.23257V21.907H17.0233H22.0465H23.1628C23.6252 21.907 24 22.2818 24 22.7442C24 23.2066 23.6252 23.5814 23.1628 23.5814H0.837209C0.374835 23.5814 0 23.2066 0 22.7442C0 22.2818 0.374835 21.907 0.837209 21.907H1.95349V8.23257C1.95349 6.12769 1.95349 5.07526 2.60739 4.42136C3.26129 3.76746 4.31373 3.76746 6.4186 3.76746ZM4.46512 7.11629C4.46512 6.65392 4.83995 6.27908 5.30233 6.27908H12C12.4624 6.27908 12.8372 6.65392 12.8372 7.11629C12.8372 7.57867 12.4624 7.9535 12 7.9535H5.30233C4.83995 7.9535 4.46512 7.57867 4.46512 7.11629ZM4.46512 10.4651C4.46512 10.0028 4.83995 9.62792 5.30233 9.62792H12C12.4624 9.62792 12.8372 10.0028 12.8372 10.4651C12.8372 10.9275 12.4624 11.3023 12 11.3023H5.30233C4.83995 11.3023 4.46512 10.9275 4.46512 10.4651ZM4.46512 13.814C4.46512 13.3516 4.83995 12.9768 5.30233 12.9768H12C12.4624 12.9768 12.8372 13.3516 12.8372 13.814C12.8372 14.2763 12.4624 14.6512 12 14.6512H5.30233C4.83995 14.6512 4.46512 14.2763 4.46512 13.814ZM8.65116 18.5582C9.11354 18.5582 9.48837 18.933 9.48837 19.3954V21.907H7.81395V19.3954C7.81395 18.933 8.18879 18.5582 8.65116 18.5582Z" fill="#56686E"/>
<path opacity="0.5" d="M15.3489 0.41861H17.5814C19.6863 0.41861 20.7387 0.41861 21.3926 1.07251C22.0466 1.72641 22.0466 2.77885 22.0466 4.88373V21.907H15.3489V8.23256C15.3489 6.12769 15.3489 5.07525 14.695 4.42135C14.0558 3.78217 13.0358 3.76778 11.0244 3.76746V2.09302C11.1185 1.66075 11.2756 1.33462 11.5377 1.07251C12.1915 0.41861 13.244 0.41861 15.3489 0.41861Z" fill="#56686E"/>
</g>
<defs>
<clipPath id="clip0_989_7675">
<rect width="24" height="24" fill="white"/>
</clipPath>
</defs>
</svg>
