<svg width="24" height="24" viewBox="0 0 24 24" fill="none" xmlns="http://www.w3.org/2000/svg">
<path d="M9.54107 16.67C9.13107 16.67 8.79107 16.33 8.79107 15.92V12.53L8.60107 12.75C8.32107 13.06 7.85107 13.08 7.54107 12.81C7.39379 12.6767 7.30492 12.4907 7.29369 12.2923C7.28246 12.0939 7.34978 11.8991 7.48107 11.75L8.98107 10.08C9.19107 9.85 9.52107 9.77 9.81107 9.88C10.1011 9.99 10.2911 10.27 10.2911 10.58V15.93C10.2911 16.34 9.96107 16.67 9.54107 16.67Z" fill="#B6B9B9"/>
<path d="M12.0011 3.47999C11.9211 3.47999 11.8411 3.48999 11.7611 3.48999L12.5811 2.46999C12.8411 2.14999 12.7911 1.66999 12.4611 1.41999C12.3847 1.35787 12.2967 1.31163 12.2022 1.28399C12.1077 1.25635 12.0087 1.24787 11.9108 1.25905C11.813 1.27023 11.7184 1.30084 11.6326 1.34909C11.5468 1.39733 11.4715 1.46224 11.4111 1.53999L9.44109 3.99999C9.43109 4.00999 9.43109 4.01999 9.42109 4.03999C9.39109 4.07999 9.37109 4.12999 9.35109 4.16999C9.33109 4.21999 9.31109 4.25999 9.30109 4.29999C9.29109 4.34999 9.29109 4.38999 9.29109 4.43999V4.63999C9.30109 4.66999 9.32109 4.68999 9.33109 4.72999C9.35109 4.77999 9.36109 4.81999 9.39109 4.85999C9.42109 4.89999 9.45109 4.93999 9.49109 4.97999C9.51109 4.99999 9.53109 5.02999 9.55109 5.04999C9.56109 5.05999 9.58109 5.05999 9.59109 5.06999C9.62109 5.08999 9.65109 5.10999 9.69109 5.11999C9.74109 5.14999 9.79109 5.16999 9.84109 5.17999C9.88109 5.19999 9.91109 5.19999 9.95109 5.19999C9.98109 5.19999 10.0011 5.20999 10.0311 5.20999C10.0511 5.20999 10.0811 5.19999 10.1011 5.18999H10.2011C10.8411 5.03999 11.4411 4.96999 12.0111 4.96999C16.5011 4.96999 20.1511 8.61999 20.1511 13.11C20.1511 17.6 16.5011 21.25 12.0111 21.25C7.52109 21.25 3.87109 17.6 3.87109 13.11C3.87109 11.37 4.44109 9.68999 5.52109 8.24999C5.64044 8.09086 5.69169 7.89084 5.66356 7.69393C5.63543 7.49701 5.53022 7.31934 5.37109 7.19999C5.21196 7.08065 5.01194 7.0294 4.81503 7.05753C4.61811 7.08566 4.44044 7.19086 4.32109 7.34999C3.04109 9.04999 2.37109 11.04 2.37109 13.11C2.37109 18.42 6.69109 22.75 12.0111 22.75C17.3311 22.75 21.6511 18.43 21.6511 13.11C21.6511 7.78999 17.3111 3.47999 12.0011 3.47999Z" fill="#B6B9B9"/>
<path d="M14 16.67C12.48 16.67 11.25 15.44 11.25 13.92V12.57C11.25 11.05 12.48 9.82001 14 9.82001C15.52 9.82001 16.75 11.05 16.75 12.57V13.92C16.75 15.44 15.52 16.67 14 16.67ZM14 11.33C13.31 11.33 12.75 11.89 12.75 12.58V13.93C12.75 14.2615 12.8817 14.5795 13.1161 14.8139C13.3505 15.0483 13.6685 15.18 14 15.18C14.3315 15.18 14.6495 15.0483 14.8839 14.8139C15.1183 14.5795 15.25 14.2615 15.25 13.93V12.58C15.25 11.89 14.69 11.33 14 11.33Z" fill="#B6B9B9"/>
</svg>
