<svg width="24" height="25" viewBox="0 0 24 25" fill="none" xmlns="http://www.w3.org/2000/svg">
<path d="M5 10.345H7C9 10.345 10 9.345 10 7.345V5.345C10 3.345 9 2.345 7 2.345H5C3 2.345 2 3.345 2 5.345V7.345C2 9.345 3 10.345 5 10.345Z" stroke="#B6B9B9" stroke-width="1.5" stroke-miterlimit="10" stroke-linecap="round" stroke-linejoin="round"/>
<path d="M17 10.345H19C21 10.345 22 9.345 22 7.345V5.345C22 3.345 21 2.345 19 2.345H17C15 2.345 14 3.345 14 5.345V7.345C14 9.345 15 10.345 17 10.345Z" stroke="#B6B9B9" stroke-width="1.5" stroke-miterlimit="10" stroke-linecap="round" stroke-linejoin="round"/>
<path d="M17 22.345H19C21 22.345 22 21.345 22 19.345V17.345C22 15.345 21 14.345 19 14.345H17C15 14.345 14 15.345 14 17.345V19.345C14 21.345 15 22.345 17 22.345Z" stroke="#B6B9B9" stroke-width="1.5" stroke-miterlimit="10" stroke-linecap="round" stroke-linejoin="round"/>
<path d="M5 22.345H7C9 22.345 10 21.345 10 19.345V17.345C10 15.345 9 14.345 7 14.345H5C3 14.345 2 15.345 2 17.345V19.345C2 21.345 3 22.345 5 22.345Z" stroke="#B6B9B9" stroke-width="1.5" stroke-miterlimit="10" stroke-linecap="round" stroke-linejoin="round"/>
</svg>
