<svg width="24" height="24" viewBox="0 0 24 24" fill="none" xmlns="http://www.w3.org/2000/svg">
<path d="M20.5713 3.42848L14.1904 9.80943M13.4285 5.97134V10.5713H18.0285" stroke="#B6B9B9" stroke-width="1.5" stroke-linecap="round" stroke-linejoin="round"/>
<path d="M15.8095 1.9998H9.61906C4.85715 1.9998 2.95239 3.90456 2.95239 8.66647V10.5712M13.4286 21.0474H15.3333C20.0952 21.0474 22 19.1427 22 14.3808V7.2379" stroke="#B6B9B9" stroke-width="1.5" stroke-linecap="round" stroke-linejoin="round"/>
<path d="M10.5714 18.9997V16.4283C10.5714 14.2854 9.71428 13.4283 7.57143 13.4283H5C2.85714 13.4283 2 14.2854 2 16.4283V18.9997C2 21.1426 2.85714 21.9997 5 21.9997H7.57143C9.71428 21.9997 10.5714 21.1426 10.5714 18.9997Z" stroke="#B6B9B9" stroke-width="1.5" stroke-linecap="round" stroke-linejoin="round"/>
</svg>
