<svg width="24" height="24" viewBox="0 0 24 24" fill="none" xmlns="http://www.w3.org/2000/svg">
<path d="M19.6921 7.348C19.5727 7.18887 19.395 7.08366 19.1981 7.05553C19.0012 7.0274 18.8012 7.07865 18.642 7.198C18.4829 7.31734 18.3777 7.49502 18.3496 7.69193C18.3215 7.88884 18.3727 8.08887 18.4921 8.248C19.5721 9.688 20.142 11.368 20.142 13.108C20.142 17.598 16.4921 21.248 12.0021 21.248C7.51205 21.248 3.86205 17.598 3.86205 13.108C3.86205 8.618 7.51205 4.978 12.0021 4.978C12.5821 4.978 13.172 5.04799 13.812 5.19799C13.842 5.20799 13.872 5.19799 13.9121 5.19799C13.932 5.19799 13.9621 5.21799 13.982 5.21799C14.0121 5.21799 14.0321 5.208 14.062 5.208C14.1021 5.208 14.132 5.198 14.162 5.188C14.212 5.178 14.262 5.15799 14.312 5.128C14.3421 5.108 14.382 5.098 14.412 5.078C14.422 5.068 14.442 5.068 14.452 5.058C14.482 5.038 14.492 5.008 14.512 4.988C14.5506 4.95269 14.5843 4.91232 14.6121 4.868C14.6421 4.828 14.652 4.778 14.672 4.738C14.682 4.70799 14.702 4.67799 14.712 4.64799V4.598C14.722 4.548 14.722 4.49799 14.712 4.44799C14.712 4.39799 14.712 4.358 14.702 4.308C14.692 4.268 14.6721 4.22799 14.6521 4.17799C14.6348 4.12852 14.6113 4.08146 14.5821 4.038C14.5721 4.018 14.5721 4.008 14.562 3.99799L12.582 1.528C12.4572 1.37502 12.2776 1.27686 12.0815 1.25444C11.8853 1.23202 11.6882 1.28712 11.5321 1.408C11.212 1.668 11.1621 2.13799 11.4121 2.45799L12.2321 3.47799C12.1521 3.47799 12.072 3.46799 11.992 3.46799C6.68205 3.46799 2.35205 7.78799 2.35205 13.108C2.35205 18.428 6.67205 22.748 11.992 22.748C17.312 22.748 21.6321 18.428 21.6321 13.108C21.6421 11.038 20.962 9.048 19.6921 7.348Z" fill="#B6B9B9"/>
<path d="M9.54107 16.67C9.13107 16.67 8.79107 16.33 8.79107 15.92V12.53L8.60107 12.75C8.32107 13.06 7.85107 13.08 7.54107 12.81C7.39379 12.6767 7.30492 12.4907 7.29369 12.2923C7.28246 12.0939 7.34978 11.8991 7.48107 11.75L8.98107 10.08C9.19107 9.85001 9.52107 9.77001 9.81107 9.88001C10.1011 9.99001 10.2911 10.27 10.2911 10.58V15.93C10.2911 16.34 9.96107 16.67 9.54107 16.67ZM14.0001 16.67C12.4801 16.67 11.2501 15.44 11.2501 13.92V12.57C11.2501 11.05 12.4801 9.82001 14.0001 9.82001C15.5201 9.82001 16.7501 11.05 16.7501 12.57V13.92C16.7501 15.44 15.5201 16.67 14.0001 16.67ZM14.0001 11.33C13.3101 11.33 12.7501 11.89 12.7501 12.58V13.93C12.7501 14.2615 12.8818 14.5795 13.1162 14.8139C13.3506 15.0483 13.6686 15.18 14.0001 15.18C14.3316 15.18 14.6495 15.0483 14.884 14.8139C15.1184 14.5795 15.2501 14.2615 15.2501 13.93V12.58C15.2501 11.89 14.6901 11.33 14.0001 11.33Z" fill="#B6B9B9"/>
</svg>
