<svg width="24" height="24" viewBox="0 0 24 24" fill="none" xmlns="http://www.w3.org/2000/svg">
<g clip-path="url(#clip0_809_4986)">
<path fill-rule="evenodd" clip-rule="evenodd" d="M5.16375 12C5.16375 11.2378 5.29033 10.5072 5.51625 9.82184L1.56184 6.80211C0.791149 8.36691 0.356934 10.1301 0.356934 12C0.356934 13.8682 0.790615 15.6304 1.56024 17.1941L5.51251 14.1685C5.28873 13.4864 5.16375 12.7584 5.16375 12Z" fill="#FBBC05"/>
<path fill-rule="evenodd" clip-rule="evenodd" d="M12.1069 5.06665C13.7625 5.06665 15.258 5.65331 16.433 6.61331L19.8512 3.19998C17.7682 1.38665 15.0978 0.266647 12.1069 0.266647C7.46347 0.266647 3.47274 2.92211 1.56177 6.80211L5.51618 9.82185C6.42734 7.05598 9.02462 5.06665 12.1069 5.06665Z" fill="#EB4335"/>
<path fill-rule="evenodd" clip-rule="evenodd" d="M12.1069 18.9333C9.02462 18.9333 6.42734 16.944 5.51618 14.1781L1.56177 17.1973C3.47274 21.0779 7.46347 23.7333 12.1069 23.7333C14.9728 23.7333 17.7089 22.7157 19.7625 20.809L16.0089 17.9072C14.9498 18.5744 13.6162 18.9333 12.1069 18.9333Z" fill="#34A853"/>
<path fill-rule="evenodd" clip-rule="evenodd" d="M23.3228 12C23.3228 11.3067 23.216 10.56 23.0558 9.86665H12.1069V14.4H18.4092C18.0941 15.9456 17.2363 17.1339 16.009 17.9072L19.7626 20.8091C21.9198 18.8069 23.3228 15.8245 23.3228 12Z" fill="#4285F4"/>
</g>
<defs>
<clipPath id="clip0_809_4986">
<rect width="24" height="24" fill="white"/>
</clipPath>
</defs>
</svg>
