<svg width="24" height="24" viewBox="0 0 24 24" fill="none" xmlns="http://www.w3.org/2000/svg">
<path d="M21.5 12C21.5 10.1211 20.9428 8.28435 19.899 6.72209C18.8551 5.15982 17.3714 3.94218 15.6355 3.22315C13.8996 2.50412 11.9895 2.31598 10.1466 2.68254C8.30383 3.0491 6.61109 3.95389 5.28249 5.28249C3.95389 6.61109 3.0491 8.30383 2.68254 10.1466C2.31598 11.9895 2.50412 13.8996 3.22315 15.6355C3.94218 17.3714 5.15982 18.8551 6.72209 19.899C8.28435 20.9428 10.1211 21.5 12 21.5H21.5L18.84 18.58C20.5497 16.8168 21.5041 14.456 21.5 12Z" stroke="#B6B9B9" stroke-miterlimit="10" stroke-linejoin="round"/>
</svg>
