<svg width="24" height="25" viewBox="0 0 24 25" fill="none" xmlns="http://www.w3.org/2000/svg">
<path d="M12.0201 3.255C8.71009 3.255 6.02009 5.945 6.02009 9.255V12.145C6.02009 12.755 5.76009 13.685 5.45009 14.205L4.30009 16.115C3.59009 17.295 4.08009 18.605 5.38009 19.045C9.69009 20.485 14.3401 20.485 18.6501 19.045C19.8601 18.645 20.3901 17.215 19.7301 16.115L18.5801 14.205C18.2801 13.685 18.0201 12.755 18.0201 12.145V9.255C18.0201 5.955 15.3201 3.255 12.0201 3.255Z" stroke="#B6B9B9" stroke-miterlimit="10" stroke-linecap="round"/>
<path d="M13.8699 3.545C13.5599 3.455 13.2399 3.385 12.9099 3.345C11.9499 3.225 11.0299 3.295 10.1699 3.545C10.4599 2.805 11.1799 2.285 12.0199 2.285C12.8599 2.285 13.5799 2.805 13.8699 3.545Z" stroke="#B6B9B9" stroke-miterlimit="10" stroke-linecap="round" stroke-linejoin="round"/>
<path d="M15.02 19.405C15.02 21.055 13.67 22.405 12.02 22.405C11.2 22.405 10.44 22.065 9.90002 21.525C9.36002 20.985 9.02002 20.225 9.02002 19.405" stroke="#B6B9B9" stroke-miterlimit="10"/>
</svg>
