<svg width="24" height="24" viewBox="0 0 24 24" fill="none" xmlns="http://www.w3.org/2000/svg">
<path d="M6.1129 20.9254C7.7438 20.9254 9.0659 19.6033 9.0659 17.9724C9.0659 16.3415 7.7438 15.0194 6.1129 15.0194C4.48201 15.0194 3.15991 16.3415 3.15991 17.9724C3.15991 19.6033 4.48201 20.9254 6.1129 20.9254Z" stroke="#B6B9B9" stroke-width="1.5" stroke-linecap="round" stroke-linejoin="round"/>
<path d="M19.8938 16.0038V4.45684C19.8938 1.99601 18.351 1.65528 16.7894 2.08119L10.8834 3.6902C9.80441 3.9836 9.06616 4.83543 9.06616 6.06584V8.11968V9.50153V17.963" stroke="#B6B9B9" stroke-width="1.5" stroke-linecap="round" stroke-linejoin="round"/>
<path d="M16.9405 18.9568C18.5714 18.9568 19.8935 17.6347 19.8935 16.0038C19.8935 14.3729 18.5714 13.0508 16.9405 13.0508C15.3096 13.0508 13.9875 14.3729 13.9875 16.0038C13.9875 17.6347 15.3096 18.9568 16.9405 18.9568Z" stroke="#B6B9B9" stroke-width="1.5" stroke-linecap="round" stroke-linejoin="round"/>
<path d="M9.06616 9.11347L19.8938 6.16048" stroke="#B6B9B9" stroke-width="1.5" stroke-linecap="round" stroke-linejoin="round"/>
</svg>
