<svg width="146" height="26" viewBox="0 0 146 26" fill="none" xmlns="http://www.w3.org/2000/svg">
<g clip-path="url(#clip0_362_3091)">
<path d="M10.9711 10.5192C8.41111 7.73517 11.0351 4.69517 14.2031 7.25517L17.9151 10.2632C18.5871 10.8072 19.1631 10.5832 19.4191 10.3272C19.7711 9.97517 19.9951 9.43117 19.3551 8.69517L17.4991 6.55117C16.0911 4.91917 15.3871 4.08717 15.3871 2.90317C15.3871 1.36717 16.4751 0.215166 18.2991 0.215166C20.6031 0.215166 21.4991 1.65517 21.4991 4.43917V16.4392C21.4991 22.6152 17.8191 25.4952 10.8751 25.4952C4.41112 25.4952 -0.00488281 21.6552 -0.00488281 15.5752V5.20717C-0.00488281 1.65517 1.30711 0.215166 3.73911 0.215166C7.16311 0.215166 7.99511 3.89517 6.45911 6.16717L2.52311 11.9912C1.21111 13.9432 1.65911 15.6712 3.54711 16.6312L12.6351 21.3032C15.3871 22.7112 17.0831 22.5192 18.0431 21.1752C19.0031 19.8312 18.2351 18.3592 17.4991 17.5912L10.9711 10.5192ZM37.7548 17.5592C39.5788 17.5272 40.7948 17.1752 40.9868 15.5432L42.3628 4.21517C42.5868 2.45517 41.7228 1.33517 40.3788 1.59117C39.0348 1.84717 37.8828 4.27917 37.4028 5.27117L33.5308 13.2072C32.5068 15.3192 30.7148 15.7352 29.5308 15.7352C27.6428 15.7352 26.1068 14.1672 26.1068 12.1832C26.1068 10.8072 27.0668 9.55917 28.5388 8.37517L34.9708 3.25517C37.7548 1.04717 38.9068 0.215166 40.9868 0.215166C42.9068 0.215166 44.2188 1.59117 44.6348 3.76717L47.5468 19.1592C48.2188 22.7432 47.1308 25.4952 43.8348 25.4952C41.2108 25.4952 39.9628 23.8312 39.9628 21.8792V20.2152C39.9628 18.4552 39.0348 18.2312 37.9148 19.1912L34.7788 21.8792C33.3068 23.1272 30.9388 25.4952 28.3148 25.4952C26.4588 25.4952 24.3788 24.4392 24.3788 21.4312C24.3788 18.8712 26.6828 17.8152 29.4988 17.7512L37.7548 17.5592ZM56.4366 4.08717C54.5806 3.92717 53.7486 4.79117 53.7486 5.68717C53.7486 6.61517 54.4846 7.25517 56.4366 7.51117L67.8926 8.91917C70.3246 9.20717 71.1566 10.6792 71.1566 12.2152C71.1566 13.3992 70.7086 14.9032 67.8926 15.7992L55.4126 19.7672C53.9086 20.2472 53.6526 20.8872 53.6526 21.6872C53.6526 22.3912 54.5166 23.7032 56.0846 23.1592L69.1726 18.5832C71.9246 17.6232 73.3646 18.3912 73.4606 20.3112C73.5566 22.1352 72.6606 23.1592 70.9646 23.9592C69.1086 24.8232 64.3086 25.5592 60.0206 25.5272C55.7646 25.5272 51.9246 24.5672 51.9246 21.3672C51.9246 20.1832 52.7246 19.0312 54.1646 18.0072L63.7006 11.3832C64.9806 10.4872 64.3406 9.30317 62.8686 9.91117L56.4686 12.5352C53.3326 13.8152 50.6126 12.2792 50.6126 9.36717C50.6126 3.54317 57.5886 0.247166 65.7806 0.247166C71.5086 0.247166 73.4606 1.55917 73.4606 3.57517C73.4606 4.59917 72.9166 5.55917 70.5166 5.33517L56.4366 4.08717ZM83.2953 23.0632C83.1674 24.8232 82.0473 25.4632 80.7993 25.4632C78.6873 25.4632 75.9673 24.7272 76.1913 22.2952C76.3193 20.9512 76.8633 19.8952 79.0714 19.8952C81.1833 19.8952 83.5193 20.5032 83.2953 23.0632ZM98.5986 15.5752C98.2467 17.9112 98.7266 18.9352 99.7506 18.9352C100.359 18.9352 100.999 18.5512 101.479 17.3672L106.663 4.79117C108.039 1.46317 110.151 0.183167 112.679 0.183167C116.391 0.183167 118.535 2.67917 118.535 9.87917V16.6312C118.535 21.2712 118.023 25.4952 113.831 25.4952C110.375 25.4952 109.703 22.2312 111.047 18.9352L115.463 8.08717C115.751 7.38317 116.167 5.94317 116.167 5.04717C116.167 3.22317 115.111 1.87917 113.319 1.87917C111.847 1.87917 110.535 2.71117 110.791 4.34317L111.079 6.16717C111.495 8.82317 110.823 11.7032 109.863 13.6232L106.151 20.9832C104.423 24.4392 103.239 25.4952 101.767 25.4952C99.6226 25.4952 98.5986 23.5432 97.6386 20.3432L92.5826 3.63917C91.7187 0.791165 88.3266 1.71917 89.0626 4.37517L92.6786 17.1432C93.0306 18.3912 93.7346 20.4072 93.7346 21.7832C93.7346 23.4152 92.9026 25.4952 90.2146 25.4952C88.4226 25.4952 86.3106 24.3752 86.3426 20.7272L86.4066 10.0712C86.4386 2.32717 88.0706 0.215166 92.1026 0.215166C97.1586 0.215166 100.295 3.92717 99.4306 9.87917L98.5986 15.5752ZM133.854 0.215166C141.31 0.215166 145.214 4.53517 145.214 12.9192C145.214 21.3032 141.31 25.4952 133.854 25.4952C126.43 25.4952 122.526 21.3032 122.526 12.9192C122.526 4.53517 126.43 0.215166 133.854 0.215166ZM134.398 2.99917C133.182 1.55917 131.134 2.32717 130.622 3.99117L126.302 17.7832C125.374 20.7912 127.39 22.4552 129.95 21.4312L142.078 16.5672C143.614 15.9592 143.934 14.5192 142.846 13.2072L134.398 2.99917Z" fill="#FDB920"/>
</g>
<defs>
<clipPath id="clip0_362_3091">
<rect width="146" height="26" fill="white"/>
</clipPath>
</defs>
</svg>
