<svg width="56" height="56" viewBox="0 0 56 56" fill="none" xmlns="http://www.w3.org/2000/svg">
<g filter="url(#filter0_b_1_276)">
<rect width="56" height="56" rx="28" fill="#202C30"/>
<path d="M25.0236 23.6538V19.4417C24.4133 19.4417 23.9072 18.9356 23.9072 18.3254V14.9764H20.5583C13.9945 14.9764 12 16.9709 12 23.5348V24.279C12 24.8892 12.5061 25.3953 13.1163 25.3953C14.5452 25.3953 15.721 26.5711 15.721 28C15.721 29.4289 14.5452 30.6047 13.1163 30.6047C12.5061 30.6047 12 31.1108 12 31.721V32.4652C12 39.0291 13.9945 41.0235 20.5583 41.0235H23.9072V37.6746C23.9072 37.0644 24.4133 36.5583 25.0236 36.5583V32.3461C24.4133 32.3461 23.9072 31.8401 23.9072 31.2298V24.7702C23.9072 24.1599 24.4133 23.6538 25.0236 23.6538Z" fill="#56686E"/>
<path d="M40.2791 28.7442C40.2791 30.1731 41.455 31.3489 42.8838 31.3489C43.4941 31.3489 44.0001 31.855 44.0001 32.4652C44.0001 39.0291 42.0057 41.0235 35.4418 41.0235H26.1393V37.6746C26.1393 37.0644 25.6332 36.5583 25.0229 36.5583V32.3461C25.6332 32.3461 26.1393 31.8401 26.1393 31.2298V24.7702C26.1393 24.1599 25.6332 23.6538 25.0229 23.6538V19.4417C25.6332 19.4417 26.1393 18.9356 26.1393 18.3254V14.9764H35.4418C42.0057 14.9764 44.0001 16.9709 44.0001 23.5348V25.0232C44.0001 25.6334 43.4941 26.1395 42.8838 26.1395C41.455 26.1395 40.2791 27.3153 40.2791 28.7442Z" fill="#56686E"/>
<path d="M37.6285 27.8436C37.8815 27.6055 37.9708 27.2334 37.8666 26.9059C37.7624 26.5636 37.4796 26.3255 37.1224 26.2808L35.2173 25.998C35.1428 25.9831 35.0833 25.9385 35.0535 25.8789L34.2052 24.1524C34.0563 23.8398 33.7289 23.6463 33.3865 23.6463C33.0293 23.6463 32.7167 23.8398 32.553 24.1524L31.7046 25.8789C31.6749 25.9534 31.6004 25.998 31.526 25.998L29.6209 26.2808C29.2785 26.3255 28.9808 26.5785 28.8767 26.9059C28.7725 27.2483 28.8618 27.6055 29.1148 27.8436L30.499 29.1832C30.5586 29.2279 30.5734 29.3172 30.5586 29.3916L30.2311 31.2819C30.1716 31.6242 30.3055 31.9814 30.6032 32.1749C30.7669 32.294 30.9455 32.3535 31.139 32.3535C31.2879 32.3535 31.4367 32.3237 31.5707 32.2493L33.2823 31.3563C33.3419 31.3265 33.4312 31.3265 33.4907 31.3563L35.2024 32.2493C35.515 32.413 35.8871 32.3833 36.1698 32.1749C36.4526 31.9665 36.6015 31.6242 36.542 31.267L36.2145 29.3767C36.1996 29.3023 36.2294 29.2279 36.274 29.1683L37.6285 27.8436Z" fill="#202C30"/>
</g>
<defs>
<filter id="filter0_b_1_276" x="-24" y="-24" width="104" height="104" filterUnits="userSpaceOnUse" color-interpolation-filters="sRGB">
<feFlood flood-opacity="0" result="BackgroundImageFix"/>
<feGaussianBlur in="BackgroundImageFix" stdDeviation="12"/>
<feComposite in2="SourceAlpha" operator="in" result="effect1_backgroundBlur_1_276"/>
<feBlend mode="normal" in="SourceGraphic" in2="effect1_backgroundBlur_1_276" result="shape"/>
</filter>
</defs>
</svg>
