<svg width="56" height="56" viewBox="0 0 56 56" fill="none" xmlns="http://www.w3.org/2000/svg">
<g filter="url(#filter0_b_1_270)">
<rect width="56" height="56" rx="28" fill="#202C30"/>
<path d="M40.5798 30.1502L35.5946 31.8479L29.9256 24.9071L40.2798 17.2225C40.4178 17.1145 40.5078 16.9585 40.5198 16.7846C40.5318 16.6106 40.4658 16.4366 40.3458 16.3167C39.302 15.2728 37.7903 14.9189 36.3925 15.3928L25.2525 19.1842L22.9609 16.3766C22.9489 16.3646 22.9009 16.3106 22.8889 16.2927C22.8589 16.2627 22.8289 16.2267 22.7989 16.1967C21.8511 15.2489 20.0874 14.193 18.4196 13.5811C16.8899 13.0112 14.8323 12.5733 13.6985 13.7071C13.2186 14.193 12.9786 14.8949 13.0026 15.8068C13.0566 18.1103 14.8803 21.5957 16.38 22.9635L19.1875 25.2551L15.3962 36.3892C14.9223 37.7869 15.2762 39.2986 16.314 40.3425C16.44 40.4684 16.614 40.5284 16.7819 40.5165C16.9559 40.5044 17.1179 40.4144 17.2199 40.2765L24.9105 29.9283L31.8513 35.5913L30.1536 40.5764C29.8836 41.3623 30.0936 42.2382 30.6755 42.826C30.7895 42.934 30.9395 43 31.1015 43H31.1435C31.3174 42.982 31.4734 42.898 31.5814 42.754L34.9948 38.1589L35.0667 38.2189C35.8286 38.8487 37.6463 39.5026 38.5761 38.5787C39.494 37.6609 38.8461 35.8372 38.2222 35.0694L38.1622 34.9914L42.7574 31.578C42.8954 31.476 42.9854 31.32 42.9974 31.1461C43.0094 30.9721 42.9434 30.7981 42.8234 30.6781C42.2415 30.0903 41.3597 29.8863 40.5798 30.1502Z" fill="#56686E"/>
</g>
<defs>
<filter id="filter0_b_1_270" x="-24" y="-24" width="104" height="104" filterUnits="userSpaceOnUse" color-interpolation-filters="sRGB">
<feFlood flood-opacity="0" result="BackgroundImageFix"/>
<feGaussianBlur in="BackgroundImageFix" stdDeviation="12"/>
<feComposite in2="SourceAlpha" operator="in" result="effect1_backgroundBlur_1_270"/>
<feBlend mode="normal" in="SourceGraphic" in2="effect1_backgroundBlur_1_270" result="shape"/>
</filter>
</defs>
</svg>
