<svg width="24" height="24" viewBox="0 0 24 24" fill="none" xmlns="http://www.w3.org/2000/svg">
<path d="M16.7563 3.56V2C16.7563 1.59 16.4163 1.25 16.0063 1.25C15.5963 1.25 15.2563 1.59 15.2563 2V3.5H8.75633V2C8.75633 1.59 8.41633 1.25 8.00633 1.25C7.59633 1.25 7.25633 1.59 7.25633 2V3.56C4.55633 3.81 3.24633 5.42 3.04633 7.81C3.02633 8.1 3.26633 8.34 3.54633 8.34H20.4663C20.7563 8.34 20.9963 8.09 20.9663 7.81C20.7663 5.42 19.4563 3.81 16.7563 3.56Z" fill="#B6B9B9"/>
<path opacity="0.4" d="M20.0063 9.84C20.5563 9.84 21.0063 10.29 21.0063 10.84V17C21.0063 20 19.5063 22 16.0063 22H8.00635C4.50635 22 3.00635 20 3.00635 17V10.84C3.00635 10.29 3.45635 9.84 4.00635 9.84H20.0063Z" fill="#B6B9B9"/>
<path d="M8.50635 15C8.24635 15 7.98635 14.89 7.79635 14.71C7.61635 14.52 7.50635 14.26 7.50635 14C7.50635 13.74 7.61635 13.48 7.79635 13.29C8.07635 13.01 8.51635 12.92 8.88635 13.08C9.01635 13.13 9.12635 13.2 9.21635 13.29C9.39635 13.48 9.50635 13.74 9.50635 14C9.50635 14.26 9.39635 14.52 9.21635 14.71C9.02635 14.89 8.76635 15 8.50635 15Z" fill="#B6B9B9"/>
<path d="M12.0063 15C11.7463 15 11.4863 14.89 11.2963 14.71C11.1163 14.52 11.0063 14.26 11.0063 14C11.0063 13.74 11.1163 13.48 11.2963 13.29C11.3863 13.2 11.4963 13.13 11.6263 13.08C11.9963 12.92 12.4363 13.01 12.7163 13.29C12.8963 13.48 13.0063 13.74 13.0063 14C13.0063 14.26 12.8963 14.52 12.7163 14.71C12.6663 14.75 12.6163 14.79 12.5663 14.83C12.5063 14.87 12.4463 14.9 12.3863 14.92C12.3263 14.95 12.2663 14.97 12.2063 14.98C12.1363 14.99 12.0763 15 12.0063 15Z" fill="#B6B9B9"/>
<path d="M15.5063 15C15.2463 15 14.9863 14.89 14.7963 14.71C14.6163 14.52 14.5063 14.26 14.5063 14C14.5063 13.74 14.6163 13.48 14.7963 13.29C14.8963 13.2 14.9963 13.13 15.1263 13.08C15.3063 13 15.5063 12.98 15.7063 13.02C15.7663 13.03 15.8263 13.05 15.8863 13.08C15.9463 13.1 16.0063 13.13 16.0663 13.17C16.1163 13.21 16.1663 13.25 16.2163 13.29C16.3963 13.48 16.5063 13.74 16.5063 14C16.5063 14.26 16.3963 14.52 16.2163 14.71C16.1663 14.75 16.1163 14.79 16.0663 14.83C16.0063 14.87 15.9463 14.9 15.8863 14.92C15.8263 14.95 15.7663 14.97 15.7063 14.98C15.6363 14.99 15.5663 15 15.5063 15Z" fill="#B6B9B9"/>
<path d="M8.50635 18.5C8.37635 18.5 8.24635 18.47 8.12635 18.42C7.99635 18.37 7.89635 18.3 7.79635 18.21C7.61635 18.02 7.50635 17.76 7.50635 17.5C7.50635 17.24 7.61635 16.98 7.79635 16.79C7.89635 16.7 7.99635 16.63 8.12635 16.58C8.30635 16.5 8.50635 16.48 8.70635 16.52C8.76635 16.53 8.82635 16.55 8.88635 16.58C8.94635 16.6 9.00635 16.63 9.06635 16.67C9.11635 16.71 9.16635 16.75 9.21635 16.79C9.39635 16.98 9.50635 17.24 9.50635 17.5C9.50635 17.76 9.39635 18.02 9.21635 18.21C9.16635 18.25 9.11635 18.3 9.06635 18.33C9.00635 18.37 8.94635 18.4 8.88635 18.42C8.82635 18.45 8.76635 18.47 8.70635 18.48C8.63635 18.49 8.57635 18.5 8.50635 18.5Z" fill="#B6B9B9"/>
<path d="M12.0063 18.5C11.7463 18.5 11.4863 18.39 11.2963 18.21C11.1163 18.02 11.0063 17.76 11.0063 17.5C11.0063 17.24 11.1163 16.98 11.2963 16.79C11.6663 16.42 12.3463 16.42 12.7163 16.79C12.8963 16.98 13.0063 17.24 13.0063 17.5C13.0063 17.76 12.8963 18.02 12.7163 18.21C12.5263 18.39 12.2663 18.5 12.0063 18.5Z" fill="#B6B9B9"/>
<path d="M15.5063 18.5C15.2463 18.5 14.9863 18.39 14.7963 18.21C14.6163 18.02 14.5063 17.76 14.5063 17.5C14.5063 17.24 14.6163 16.98 14.7963 16.79C15.1663 16.42 15.8463 16.42 16.2163 16.79C16.3963 16.98 16.5063 17.24 16.5063 17.5C16.5063 17.76 16.3963 18.02 16.2163 18.21C16.0263 18.39 15.7663 18.5 15.5063 18.5Z" fill="#B6B9B9"/>
</svg>
