<svg width="24" height="24" viewBox="0 0 24 24" fill="none" xmlns="http://www.w3.org/2000/svg">
<path d="M22.0012 8.52V3.98C22.0012 2.57 21.3612 2 19.7712 2H15.7312C14.1412 2 13.5012 2.57 13.5012 3.98V8.51C13.5012 9.93 14.1412 10.49 15.7312 10.49H19.7712C21.3612 10.5 22.0012 9.93 22.0012 8.52Z" fill="#B6B9B9"/>
<path d="M22.0012 19.77V15.73C22.0012 14.14 21.3612 13.5 19.7712 13.5H15.7312C14.1412 13.5 13.5012 14.14 13.5012 15.73V19.77C13.5012 21.36 14.1412 22 15.7312 22H19.7712C21.3612 22 22.0012 21.36 22.0012 19.77Z" fill="#B6B9B9"/>
<path d="M10.5012 8.52V3.98C10.5012 2.57 9.86122 2 8.27122 2H4.23122C2.64122 2 2.00122 2.57 2.00122 3.98V8.51C2.00122 9.93 2.64122 10.49 4.23122 10.49H8.27122C9.86122 10.5 10.5012 9.93 10.5012 8.52Z" fill="#B6B9B9"/>
<path d="M10.5012 19.77V15.73C10.5012 14.14 9.86122 13.5 8.27122 13.5H4.23122C2.64122 13.5 2.00122 14.14 2.00122 15.73V19.77C2.00122 21.36 2.64122 22 4.23122 22H8.27122C9.86122 22 10.5012 21.36 10.5012 19.77Z" fill="#B6B9B9"/>
</svg>
