<svg width="24" height="24" viewBox="0 0 24 24" fill="none" xmlns="http://www.w3.org/2000/svg">
<path d="M13.1912 6H6.79122C6.53122 6 6.28122 6.01 6.04122 6.04C3.35122 6.27 2.00122 7.86 2.00122 10.79V14.79C2.00122 18.79 3.60122 19.58 6.79122 19.58H7.19122C7.41122 19.58 7.70122 19.73 7.83122 19.9L9.03122 21.5C9.56122 22.21 10.4212 22.21 10.9512 21.5L12.1512 19.9C12.3012 19.7 12.5412 19.58 12.7912 19.58H13.1912C16.1212 19.58 17.7112 18.24 17.9412 15.54C17.9712 15.3 17.9812 15.05 17.9812 14.79V10.79C17.9812 7.6 16.3812 6 13.1912 6ZM6.50122 14C5.94122 14 5.50122 13.55 5.50122 13C5.50122 12.45 5.95122 12 6.50122 12C7.05122 12 7.50122 12.45 7.50122 13C7.50122 13.55 7.05122 14 6.50122 14ZM9.99122 14C9.43122 14 8.99122 13.55 8.99122 13C8.99122 12.45 9.44122 12 9.99122 12C10.5412 12 10.9912 12.45 10.9912 13C10.9912 13.55 10.5512 14 9.99122 14ZM13.4912 14C12.9312 14 12.4912 13.55 12.4912 13C12.4912 12.45 12.9412 12 13.4912 12C14.0412 12 14.4912 12.45 14.4912 13C14.4912 13.55 14.0412 14 13.4912 14Z" fill="#B6B9B9"/>
<path d="M21.9812 6.79V10.79C21.9812 12.79 21.3612 14.15 20.1212 14.9C19.8212 15.08 19.4712 14.84 19.4712 14.49L19.4812 10.79C19.4812 6.79 17.1912 4.5 13.1912 4.5L7.10122 4.51C6.75122 4.51 6.51122 4.16 6.69122 3.86C7.44122 2.62 8.80122 2 10.7912 2H17.1912C20.3812 2 21.9812 3.6 21.9812 6.79Z" fill="#B6B9B9"/>
</svg>
