<svg width="30" height="30" viewBox="0 0 30 30" fill="none" xmlns="http://www.w3.org/2000/svg">
<circle cx="15" cy="15" r="15" fill="#00BFFF"/>
<g filter="url(#filter0_ii_129_2757)">
<circle cx="14.9998" cy="14.9997" r="13.4204" fill="#019ED2"/>
</g>
<g filter="url(#filter1_d_129_2757)">
<path d="M8.08221 8.0832C8.55351 6.84331 9.73943 5.92164 11.0478 5.73554C11.6722 5.63966 12.3159 5.73473 12.9008 5.96434C13.6484 6.24712 14.3196 6.68701 15.0068 7.08661C17.1458 8.30153 19.2574 9.5656 21.4036 10.7692C22.0643 11.1705 22.7741 11.5241 23.3195 12.0841C19.2566 14.476 15.2058 16.8898 11.1469 19.289C10.5064 19.5951 9.98838 20.1655 9.85383 20.8761C14.2559 18.2835 18.637 15.6547 23.0391 13.0637C23.0512 13.2063 22.9964 13.307 22.8731 13.3634C18.5234 15.9447 14.1737 18.5268 9.82402 21.109C9.82241 21.3515 9.84739 21.5923 9.89492 21.8308C14.2777 19.2326 18.6515 16.6207 23.0415 14.0353C23.052 14.1763 22.998 14.2754 22.878 14.3326C20.1049 15.9754 17.3351 17.6237 14.5629 19.2664C14.6966 19.4542 14.8311 19.6427 14.9641 19.832C17.6541 18.2425 20.3305 16.6312 23.0278 15.0569C23.0246 15.1085 23.019 15.2108 23.0157 15.2624C20.3611 16.8358 17.7081 18.4108 15.0551 19.9875C15.0567 20.2864 15.0559 20.5853 15.0551 20.8842C17.7146 19.3043 20.3716 17.7188 23.0383 16.1502C23.081 16.4096 22.8071 16.474 22.6403 16.5901C20.1106 18.0886 17.5824 19.5895 15.0551 21.092C15.0559 21.3361 15.0559 21.5795 15.0551 21.8236C18.0473 20.0447 21.0435 18.2739 24.0381 16.499C23.3171 17.7486 21.9716 18.3955 20.7631 19.0763C18.8666 20.1881 16.9516 21.2669 15.0543 22.3787C15.06 23.0192 15.0511 23.6605 15.0599 24.3009C14.7707 24.0125 14.4726 23.733 14.1874 23.4405C13.8764 23.7257 13.5671 24.0125 13.2609 24.3026C13.2633 23.9932 13.2609 23.683 13.265 23.3736C12.4964 23.7362 11.6174 23.9078 10.7795 23.708C9.69593 23.4832 8.7799 22.7122 8.24656 21.7591C7.83246 20.9978 7.80506 20.1075 7.80184 19.2616C7.80023 16.1993 7.80184 13.1379 7.80104 10.0756C7.80023 9.40366 7.84615 8.71805 8.08221 8.0832ZM12.2764 10.7427C11.9082 10.9336 11.8712 11.4073 11.8446 11.7731C11.8317 12.7125 11.8478 13.6519 11.8333 14.5912C11.8518 14.9336 11.876 15.3445 12.1693 15.5733C12.4754 15.7667 12.8573 15.637 13.1634 15.5073C13.7379 15.2374 14.2672 14.8829 14.8231 14.5792C15.1727 14.36 15.5562 14.1924 15.8801 13.9338C16.2249 13.6599 16.3498 13.1387 16.1363 12.7479C15.9824 12.4426 15.6706 12.2726 15.3862 12.109C14.7047 11.7296 14.04 11.3211 13.3568 10.9457C13.0281 10.7926 12.639 10.5856 12.2764 10.7427ZM9.95132 22.0048C10.0488 22.2135 10.164 22.4141 10.3026 22.5994C11.2589 22.0298 12.2176 21.4626 13.1747 20.8938C13.0515 20.6989 12.9314 20.5031 12.8122 20.3065C11.8583 20.8729 10.9044 21.4385 9.95132 22.0048ZM10.4218 22.7348C10.6361 22.9281 10.8778 23.0868 11.1413 23.2053C11.8486 22.7831 12.5584 22.3666 13.2642 21.9428C13.2617 21.6439 13.2617 21.345 13.2642 21.0461C12.3191 21.6125 11.3701 22.174 10.4218 22.7348ZM11.3693 23.2858C12.0275 23.4494 12.7171 23.2705 13.2633 22.8846C13.2617 22.6405 13.2617 22.3956 13.265 22.1515C12.6349 22.5333 11.9944 22.8975 11.3693 23.2858Z" fill="#014962"/>
</g>
<defs>
<filter id="filter0_ii_129_2757" x="1.57935" y="1.57928" width="26.8408" height="26.8409" filterUnits="userSpaceOnUse" color-interpolation-filters="sRGB">
<feFlood flood-opacity="0" result="BackgroundImageFix"/>
<feBlend mode="normal" in="SourceGraphic" in2="BackgroundImageFix" result="shape"/>
<feColorMatrix in="SourceAlpha" type="matrix" values="0 0 0 0 0 0 0 0 0 0 0 0 0 0 0 0 0 0 127 0" result="hardAlpha"/>
<feOffset dx="1"/>
<feComposite in2="hardAlpha" operator="arithmetic" k2="-1" k3="1"/>
<feColorMatrix type="matrix" values="0 0 0 0 0 0 0 0 0 0.445 0 0 0 0 0.593333 0 0 0 1 0"/>
<feBlend mode="normal" in2="shape" result="effect1_innerShadow_129_2757"/>
<feColorMatrix in="SourceAlpha" type="matrix" values="0 0 0 0 0 0 0 0 0 0 0 0 0 0 0 0 0 0 127 0" result="hardAlpha"/>
<feOffset dx="-1"/>
<feComposite in2="hardAlpha" operator="arithmetic" k2="-1" k3="1"/>
<feColorMatrix type="matrix" values="0 0 0 0 0 0 0 0 0 0.443137 0 0 0 0 0.592157 0 0 0 1 0"/>
<feBlend mode="normal" in2="effect1_innerShadow_129_2757" result="effect2_innerShadow_129_2757"/>
</filter>
<filter id="filter1_d_129_2757" x="6.80103" y="5.19849" width="18.2371" height="20.6041" filterUnits="userSpaceOnUse" color-interpolation-filters="sRGB">
<feFlood flood-opacity="0" result="BackgroundImageFix"/>
<feColorMatrix in="SourceAlpha" type="matrix" values="0 0 0 0 0 0 0 0 0 0 0 0 0 0 0 0 0 0 127 0" result="hardAlpha"/>
<feOffset dy="0.5"/>
<feGaussianBlur stdDeviation="0.5"/>
<feComposite in2="hardAlpha" operator="out"/>
<feColorMatrix type="matrix" values="0 0 0 0 0 0 0 0 0 0.365831 0 0 0 0 0.488854 0 0 0 1 0"/>
<feBlend mode="normal" in2="BackgroundImageFix" result="effect1_dropShadow_129_2757"/>
<feBlend mode="normal" in="SourceGraphic" in2="effect1_dropShadow_129_2757" result="shape"/>
</filter>
</defs>
</svg>
