<svg width="24" height="24" viewBox="0 0 24 24" fill="none" xmlns="http://www.w3.org/2000/svg">
<path d="M5.00122 8C3.34122 8 2.00122 9.34 2.00122 11V19C2.00122 20.66 3.34122 22 5.00122 22H6.50122C7.60122 22 8.50122 21.1 8.50122 20V10C8.50122 8.9 7.60122 8 6.50122 8H5.00122ZM6.00122 17C6.00122 17.41 5.66122 17.75 5.25122 17.75C4.84122 17.75 4.50122 17.41 4.50122 17V13C4.50122 12.59 4.84122 12.25 5.25122 12.25C5.66122 12.25 6.00122 12.59 6.00122 13V17Z" fill="#B6B9B9"/>
<path d="M19.0012 2H13.0012C11.3412 2 10.0012 3.34 10.0012 5V19C10.0012 20.66 11.3412 22 13.0012 22H13.5012C13.7812 22 14.0012 21.78 14.0012 21.5V18C14.0012 17.45 14.4512 17 15.0012 17H17.0012C17.5512 17 18.0012 17.45 18.0012 18V21.5C18.0012 21.78 18.2212 22 18.5012 22H19.0012C20.6612 22 22.0012 20.66 22.0012 19V5C22.0012 3.34 20.6612 2 19.0012 2ZM14.7512 13C14.7512 13.41 14.4112 13.75 14.0012 13.75C13.5912 13.75 13.2512 13.41 13.2512 13V8C13.2512 7.59 13.5912 7.25 14.0012 7.25C14.4112 7.25 14.7512 7.59 14.7512 8V13ZM18.7512 13C18.7512 13.41 18.4112 13.75 18.0012 13.75C17.5912 13.75 17.2512 13.41 17.2512 13V8C17.2512 7.59 17.5912 7.25 18.0012 7.25C18.4112 7.25 18.7512 7.59 18.7512 8V13Z" fill="#B6B9B9"/>
</svg>
