<svg width="33" height="33" viewBox="0 0 33 33" fill="none" xmlns="http://www.w3.org/2000/svg">
<g clip-path="url(#clip0_33_4663)">
<path d="M13.9635 12.4769V8.26472C13.3532 8.26472 12.8472 7.75867 12.8472 7.14842V3.79951H9.49828C2.93441 3.79951 0.939941 5.79397 0.939941 12.3578V13.102C0.939941 13.7123 1.446 14.2183 2.05625 14.2183C3.48512 14.2183 4.66096 15.3942 4.66096 16.8231C4.66096 18.2519 3.48512 19.4278 2.05625 19.4278C1.446 19.4278 0.939941 19.9338 0.939941 20.5441V21.2883C0.939941 27.8521 2.93441 29.8466 9.49828 29.8466H12.8472V26.4977C12.8472 25.8875 13.3532 25.3814 13.9635 25.3814V21.1692C13.3532 21.1692 12.8472 20.6631 12.8472 20.0529V13.5932C12.8472 12.983 13.3532 12.4769 13.9635 12.4769Z" fill="#56686E"/>
<path d="M29.2188 17.5673C29.2188 18.9961 30.3946 20.172 31.8235 20.172C32.4338 20.172 32.9398 20.678 32.9398 21.2883C32.9398 27.8521 30.9454 29.8466 24.3815 29.8466H15.079V26.4977C15.079 25.8875 14.5729 25.3814 13.9626 25.3814V21.1692C14.5729 21.1692 15.079 20.6631 15.079 20.0529V13.5932C15.079 12.983 14.5729 12.4769 13.9626 12.4769V8.26472C14.5729 8.26472 15.079 7.75867 15.079 7.14842V3.79951H24.3815C30.9454 3.79951 32.9398 5.79397 32.9398 12.3578V13.8462C32.9398 14.4565 32.4338 14.9626 31.8235 14.9626C30.3946 14.9626 29.2188 16.1384 29.2188 17.5673Z" fill="#56686E"/>
<path d="M26.5684 16.6667C26.8215 16.4286 26.9108 16.0565 26.8066 15.729C26.7024 15.3867 26.4196 15.1485 26.0624 15.1039L24.1572 14.8211C24.0828 14.8062 24.0233 14.7615 23.9935 14.702L23.1451 12.9755C22.9963 12.6629 22.6688 12.4694 22.3265 12.4694C21.9693 12.4694 21.6567 12.6629 21.493 12.9755L20.6446 14.702C20.6148 14.7764 20.5404 14.8211 20.466 14.8211L18.5608 15.1039C18.2185 15.1485 17.9208 15.4016 17.8166 15.729C17.7124 16.0713 17.8017 16.4286 18.0547 16.6667L19.439 18.0063C19.4985 18.0509 19.5134 18.1402 19.4985 18.2146L19.1711 20.1049C19.1115 20.4473 19.2455 20.8045 19.5432 20.998C19.7069 21.117 19.8855 21.1766 20.079 21.1766C20.2278 21.1766 20.3767 21.1468 20.5106 21.0724L22.2223 20.1793C22.2818 20.1496 22.3711 20.1496 22.4307 20.1793L24.1423 21.0724C24.4549 21.2361 24.827 21.2063 25.1098 20.998C25.3926 20.7896 25.5414 20.4473 25.4819 20.09L25.1544 18.1998C25.1396 18.1253 25.1693 18.0509 25.214 17.9914L26.5684 16.6667Z" fill="#202C30"/>
</g>
<defs>
<clipPath id="clip0_33_4663">
<rect width="32" height="32" fill="white" transform="translate(0.939941 0.823059)"/>
</clipPath>
</defs>
</svg>
