<svg width="32" height="33" viewBox="0 0 32 33" fill="none" xmlns="http://www.w3.org/2000/svg">
<path d="M28.5801 18.9733L23.5949 20.671L17.9259 13.7302L28.2801 6.04556C28.4181 5.93758 28.508 5.78158 28.5201 5.60763C28.532 5.43367 28.466 5.25967 28.3461 5.13973C27.3022 4.0959 25.7905 3.74196 24.3928 4.21589L13.2527 8.00722L10.9611 5.19968C10.9491 5.1877 10.9011 5.13369 10.8891 5.11574C10.8591 5.08572 10.8291 5.04971 10.7991 5.01974C9.85133 4.07191 8.0876 3.01607 6.41988 2.40419C4.89015 1.83426 2.83252 1.39638 1.69873 2.53017C1.21881 3.01607 0.978829 3.71797 1.00286 4.62983C1.05683 6.93338 2.8805 10.4188 4.38026 11.7866L7.18776 14.0782L3.39643 25.2122C2.92249 26.61 3.27644 28.1217 4.31427 29.1655C4.44025 29.2915 4.61421 29.3515 4.78218 29.3395C4.95613 29.3275 5.11811 29.2375 5.2201 29.0995L12.9108 18.7513L19.8516 24.4144L18.1538 29.3995C17.8839 30.1854 18.0939 31.0612 18.6758 31.6491C18.7898 31.7571 18.9397 31.8231 19.1017 31.8231H19.1437C19.3177 31.8051 19.4736 31.7211 19.5816 31.5771L22.995 26.9819L23.067 27.0419C23.8289 27.6718 25.6465 28.3257 26.5763 27.4018C27.4942 26.484 26.8464 24.6603 26.2225 23.8924L26.1625 23.8144L30.7577 20.401C30.8956 20.2991 30.9856 20.1431 30.9977 19.9692C31.0096 19.7952 30.9436 19.6212 30.8237 19.5012C30.2417 18.9133 29.3599 18.7093 28.5801 18.9733Z" fill="#56686E"/>
</svg>
