<svg width="24" height="24" viewBox="0 0 24 24" fill="none" xmlns="http://www.w3.org/2000/svg">
<path opacity="0.4" d="M21.2513 9.14999C20.7613 8.36999 20.2013 7.66999 19.6213 7.03999L15.8513 10.81C15.9713 11.18 16.0413 11.58 16.0413 12C16.0413 14.24 14.2313 16.04 12.0013 16.04C11.5813 16.04 11.1813 15.97 10.8113 15.85L7.35132 19.31C8.81132 20.13 10.3913 20.56 12.0013 20.56C13.7813 20.56 15.5113 20.04 17.0913 19.07C18.6713 18.09 20.0913 16.66 21.2513 14.84C22.2513 13.28 22.2513 10.72 21.2513 9.14999Z" fill="#B6B9B9"/>
<path d="M14.0211 9.98L9.98111 14.02C9.47111 13.5 9.14111 12.78 9.14111 12C9.14111 10.43 10.4211 9.14 12.0011 9.14C12.7811 9.14 13.5011 9.47 14.0211 9.98Z" fill="#B6B9B9"/>
<path opacity="0.4" d="M18.2512 5.74999L14.8612 9.13999C14.1312 8.39999 13.1212 7.95999 12.0012 7.95999C9.76122 7.95999 7.96122 9.76999 7.96122 12C7.96122 13.12 8.41122 14.13 9.14122 14.86L5.76122 18.25H5.75122C4.64122 17.35 3.62122 16.2 2.75122 14.84C1.75122 13.27 1.75122 10.72 2.75122 9.14999C3.91122 7.32999 5.33122 5.89999 6.91122 4.91999C8.49122 3.95999 10.2212 3.42999 12.0012 3.42999C14.2312 3.42999 16.3912 4.24999 18.2512 5.74999Z" fill="#B6B9B9"/>
<path d="M14.8613 12C14.8613 13.57 13.5813 14.86 12.0013 14.86C11.9413 14.86 11.8913 14.86 11.8313 14.84L14.8413 11.83C14.8613 11.89 14.8613 11.94 14.8613 12Z" fill="#B6B9B9"/>
<path d="M21.7711 2.23C21.4711 1.93 20.9811 1.93 20.6811 2.23L2.2311 20.69C1.9311 20.99 1.9311 21.48 2.2311 21.78C2.3811 21.92 2.5711 22 2.7711 22C2.9711 22 3.1611 21.92 3.3111 21.77L21.7711 3.31C22.0811 3.01 22.0811 2.53 21.7711 2.23Z" fill="#B6B9B9"/>
</svg>
