<svg width="33" height="33" viewBox="0 0 33 33" fill="none" xmlns="http://www.w3.org/2000/svg">
<g clip-path="url(#clip0_126_1281)">
<path fill-rule="evenodd" clip-rule="evenodd" d="M7.59456 4.15676V3.49009C7.59456 2.38552 8.48998 1.49009 9.59456 1.49009C10.6991 1.49009 11.5946 2.38552 11.5946 3.49009V4.15676H13.5602C13.5814 4.15642 13.6027 4.15641 13.624 4.15676H16.2612C17.3658 4.15676 18.2612 5.05218 18.2612 6.15676C18.2612 7.26133 17.3658 8.15676 16.2612 8.15676H15.2628C14.5784 11.2543 13.2629 14.1336 11.3288 16.7882C12.6338 18.1557 14.175 19.3725 15.9571 20.4418C16.9043 21.0101 17.2114 22.2386 16.6431 23.1857C16.0748 24.1329 14.8463 24.4401 13.8991 23.8717C11.941 22.6969 10.2156 21.3554 8.72685 19.85C7.37224 21.2326 5.82602 22.5445 4.09037 23.7842C3.19154 24.4262 1.94244 24.2181 1.30042 23.3193C0.658405 22.4204 0.866589 21.1713 1.76541 20.5293C3.44196 19.3318 4.90484 18.074 6.15698 16.7542C5.19062 15.3548 4.38354 13.8471 3.73784 12.2329C3.32761 11.2073 3.82644 10.0434 4.85201 9.63314C5.87757 9.2229 7.04152 9.72174 7.45174 10.7473C7.82805 11.6881 8.27 12.5846 8.77832 13.4375C9.85406 11.7654 10.6411 10.006 11.1441 8.15676H2.92789C1.82332 8.15676 0.92789 7.26133 0.92789 6.15676C0.92789 5.05218 1.82332 4.15676 2.92789 4.15676H7.59456ZM22.2495 22.8234H24.9396L23.5946 18.9376L22.2495 22.8234ZM20.8648 26.8234L19.4846 30.811C19.1232 31.8548 17.9842 32.4081 16.9403 32.0468C15.8966 31.6854 15.3432 30.5464 15.7046 29.5025L21.7046 12.1692C22.3258 10.3748 24.8634 10.3748 25.4846 12.1692L31.4846 29.5025C31.8459 30.5464 31.2926 31.6854 30.2488 32.0468C29.205 32.4081 28.0659 31.8548 27.7046 30.811L26.3243 26.8234H20.8648Z" fill="#56686E"/>
</g>
<defs>
<clipPath id="clip0_126_1281">
<rect width="32" height="32" fill="white" transform="translate(0.26123 0.823425)"/>
</clipPath>
</defs>
</svg>
