<svg width="24" height="24" viewBox="0 0 24 24" fill="none" xmlns="http://www.w3.org/2000/svg">
<path d="M16.4412 3.1013C15.1096 3.1013 13.8808 3.5776 12.9222 4.36693C12.4067 4.7913 11.5957 4.7913 11.0803 4.36693C10.1216 3.5776 8.89282 3.1013 7.56122 3.1013C4.49122 3.1013 2.00122 5.6013 2.00122 8.6913C2.00122 9.8813 2.19122 10.9813 2.52122 12.0013C4.10122 17.0013 8.97122 19.9913 11.3812 20.8113C11.7212 20.9313 12.2812 20.9313 12.6212 20.8113C15.0312 19.9913 19.9012 17.0013 21.4812 12.0013C21.8112 10.9813 22.0012 9.8813 22.0012 8.6913C22.0012 5.6013 19.5112 3.1013 16.4412 3.1013Z" fill="#B6B9B9"/>
</svg>
