<svg width="24" height="24" viewBox="0 0 24 24" fill="none" xmlns="http://www.w3.org/2000/svg">
<path opacity="0.4" d="M20.6213 8.45C19.5713 3.83 15.5413 1.75 12.0013 1.75C12.0013 1.75 12.0013 1.75 11.9913 1.75C8.46132 1.75 4.42132 3.82 3.37132 8.44C2.20132 13.6 5.36132 17.97 8.22132 20.72C9.28132 21.74 10.6413 22.25 12.0013 22.25C13.3613 22.25 14.7213 21.74 15.7713 20.72C18.6313 17.97 21.7913 13.61 20.6213 8.45Z" fill="#B6B9B9"/>
<path d="M12.0013 13.46C13.741 13.46 15.1513 12.0497 15.1513 10.31C15.1513 8.57031 13.741 7.16 12.0013 7.16C10.2616 7.16 8.85132 8.57031 8.85132 10.31C8.85132 12.0497 10.2616 13.46 12.0013 13.46Z" fill="#B6B9B9"/>
</svg>
