<svg width="24" height="24" viewBox="0 0 24 24" fill="none" xmlns="http://www.w3.org/2000/svg">
<path d="M9.15112 7.49001C8.59112 7.49001 8.15112 7.94001 8.15112 8.49001C8.15112 9.04001 8.60112 9.49001 9.15112 9.49001C9.70112 9.49001 10.1511 9.04001 10.1511 8.49001C10.1511 7.94001 9.70112 7.49001 9.15112 7.49001Z" fill="#B6B9B9"/>
<path d="M21.4612 5.04C20.6212 3.09 18.7712 2 16.1912 2H7.81122C4.60122 2 2.00122 4.6 2.00122 7.81V16.19C2.00122 18.77 3.09122 20.62 5.04122 21.46C5.23122 21.54 5.45122 21.49 5.59122 21.35L21.3512 5.59C21.5012 5.44 21.5512 5.22 21.4612 5.04ZM10.5312 12.24C10.1412 12.62 9.63122 12.8 9.12122 12.8C8.61122 12.8 8.10122 12.61 7.71122 12.24C6.69122 11.28 5.57122 9.75 6.00122 7.93C6.38122 6.28 7.84122 5.54 9.12122 5.54C10.4012 5.54 11.8612 6.28 12.2412 7.94C12.6612 9.75 11.5412 11.28 10.5312 12.24Z" fill="#B6B9B9"/>
<path d="M19.4711 20.53C19.6911 20.75 19.6611 21.11 19.3911 21.26C18.5111 21.75 17.4411 22 16.1911 22H7.81112C7.52112 22 7.40112 21.66 7.60112 21.46L13.6411 15.42C13.8411 15.22 14.1511 15.22 14.3511 15.42L19.4711 20.53Z" fill="#B6B9B9"/>
<path d="M22.0012 7.81V16.19C22.0012 17.44 21.7512 18.52 21.2612 19.39C21.1112 19.66 20.7512 19.68 20.5312 19.47L15.4112 14.35C15.2112 14.15 15.2112 13.84 15.4112 13.64L21.4512 7.6C21.6612 7.4 22.0012 7.52 22.0012 7.81Z" fill="#B6B9B9"/>
</svg>
