<svg width="33" height="33" viewBox="0 0 33 33" fill="none" xmlns="http://www.w3.org/2000/svg">
<g clip-path="url(#clip0_116_1241)">
<path fill-rule="evenodd" clip-rule="evenodd" d="M16.8797 16.1509C17.4843 16.1509 17.9745 16.6411 17.9745 17.2458V18.3406H19.0693C19.674 18.3406 20.1641 18.8308 20.1641 19.4354C20.1641 20.04 19.674 20.5302 19.0693 20.5302H17.9745V21.625C17.9745 22.2297 17.4843 22.7199 16.8797 22.7199C16.275 22.7199 15.7849 22.2297 15.7849 21.625V20.5302H14.69C14.0854 20.5302 13.5952 20.04 13.5952 19.4354C13.5952 18.8308 14.0854 18.3406 14.69 18.3406H15.7849V17.2458C15.7849 16.6411 16.275 16.1509 16.8797 16.1509Z" fill="#56686E"/>
<path fill-rule="evenodd" clip-rule="evenodd" d="M16.8037 0.823427C15.4921 0.823383 14.3984 0.823354 13.5302 0.940077C12.6138 1.0633 11.7864 1.33433 11.1215 1.99921C10.4566 2.66408 10.1856 3.49148 10.0624 4.4079C9.94566 5.27614 9.94569 6.36982 9.94573 7.68139V7.79484C6.99529 7.89137 5.22356 8.23614 3.9922 9.46752C2.28198 11.1777 2.28198 13.9303 2.28198 19.4354C2.28198 24.9404 2.28198 27.6931 3.9922 29.4032C5.70241 31.1135 8.45496 31.1135 13.96 31.1135H19.7991C25.3042 31.1135 28.0568 31.1135 29.767 29.4032C31.4772 27.6931 31.4772 24.9404 31.4772 19.4354C31.4772 13.9303 31.4772 11.1777 29.767 9.46752C28.5356 8.23614 26.7639 7.89137 23.8135 7.79484V7.6814C23.8135 6.36985 23.8136 5.27614 23.6968 4.4079C23.5736 3.49148 23.3025 2.66408 22.6376 1.99921C21.9729 1.33433 21.1455 1.0633 20.229 0.940077C19.3608 0.823354 18.2671 0.823383 16.9555 0.823427H16.8037ZM21.6238 7.76005V7.75729C21.6238 6.35007 21.6215 5.40479 21.5267 4.69968C21.4361 4.02604 21.2796 3.73775 21.0894 3.54752C20.8992 3.35728 20.6109 3.20077 19.9372 3.1102C19.2321 3.01541 18.2868 3.01307 16.8796 3.01307C15.4724 3.01307 14.527 3.01541 13.822 3.1102C13.1483 3.20077 12.86 3.35728 12.6698 3.54752C12.4796 3.73775 12.3231 4.02604 12.2325 4.69968C12.1377 5.40479 12.1354 6.35007 12.1354 7.75729V7.76005C12.7076 7.75729 13.315 7.75729 13.9601 7.75729H19.7991C20.4442 7.75729 21.0516 7.75729 21.6238 7.76005ZM22.7186 19.4354C22.7186 22.6601 20.1044 25.2744 16.8796 25.2744C13.6548 25.2744 11.0406 22.6601 11.0406 19.4354C11.0406 16.2106 13.6548 13.5963 16.8796 13.5963C20.1044 13.5963 22.7186 16.2106 22.7186 19.4354Z" fill="#56686E"/>
</g>
<defs>
<clipPath id="clip0_116_1241">
<rect width="32" height="32" fill="white" transform="translate(0.879883 0.823425)"/>
</clipPath>
</defs>
</svg>
