<svg width="24" height="24" viewBox="0 0 24 24" fill="none" xmlns="http://www.w3.org/2000/svg">
<path d="M10.6512 19.11V4.89C10.6512 3.54 10.0812 3 8.64122 3H5.01122C3.57122 3 3.00122 3.54 3.00122 4.89V19.11C3.00122 20.46 3.57122 21 5.01122 21H8.64122C10.0812 21 10.6512 20.46 10.6512 19.11Z" fill="#B6B9B9"/>
<path d="M21.0013 19.11V4.89C21.0013 3.54 20.4313 3 18.9913 3H15.3613C13.9313 3 13.3513 3.54 13.3513 4.89V19.11C13.3513 20.46 13.9213 21 15.3613 21H18.9913C20.4313 21 21.0013 20.46 21.0013 19.11Z" fill="#B6B9B9"/>
</svg>
