<svg width="24" height="25" viewBox="0 0 24 25" fill="none" xmlns="http://www.w3.org/2000/svg">
<path opacity="0.4" d="M21.2512 9.53657C18.9412 5.90657 15.5612 3.81657 12.0012 3.81657C10.2212 3.81657 8.49122 4.33657 6.91122 5.30657C5.33122 6.28657 3.91122 7.71657 2.75122 9.53657C1.75122 11.1066 1.75122 13.6566 2.75122 15.2266C5.06122 18.8666 8.44122 20.9466 12.0012 20.9466C13.7812 20.9466 15.5112 20.4266 17.0912 19.4566C18.6712 18.4766 20.0912 17.0466 21.2512 15.2266C22.2512 13.6666 22.2512 11.1066 21.2512 9.53657ZM12.0012 16.4266C9.76122 16.4266 7.96122 14.6166 7.96122 12.3866C7.96122 10.1566 9.76122 8.34657 12.0012 8.34657C14.2412 8.34657 16.0412 10.1566 16.0412 12.3866C16.0412 14.6166 14.2412 16.4266 12.0012 16.4266Z" fill="#B6B9B9"/>
<path d="M12.0011 9.52658C10.4311 9.52658 9.15112 10.8066 9.15112 12.3866C9.15112 13.9566 10.4311 15.2366 12.0011 15.2366C13.5711 15.2366 14.8611 13.9566 14.8611 12.3866C14.8611 10.8166 13.5711 9.52658 12.0011 9.52658Z" fill="#B6B9B9"/>
</svg>
