<svg width="24" height="24" viewBox="0 0 24 24" fill="none" xmlns="http://www.w3.org/2000/svg">
<path d="M22.3611 8.27L22.0711 5.5C21.6511 2.48 20.2811 1.25 17.3511 1.25H14.9911H13.5111H10.4711H8.99111H6.59111C3.65111 1.25 2.29111 2.48 1.86111 5.53L1.59111 8.28C1.49111 9.35 1.78111 10.39 2.41111 11.2C3.17111 12.19 4.34111 12.75 5.64111 12.75C6.90111 12.75 8.11111 12.12 8.87111 11.11C9.55111 12.12 10.7111 12.75 12.0011 12.75C13.2911 12.75 14.4211 12.15 15.1111 11.15C15.8811 12.14 17.0711 12.75 18.3111 12.75C19.6411 12.75 20.8411 12.16 21.5911 11.12C22.1911 10.32 22.4611 9.31 22.3611 8.27Z" fill="#B6B9B9"/>
<path d="M11.3513 16.66C10.0813 16.79 9.12134 17.87 9.12134 19.15V21.89C9.12134 22.16 9.34134 22.38 9.61134 22.38H14.3813C14.6513 22.38 14.8713 22.16 14.8713 21.89V19.5C14.8813 17.41 13.6513 16.42 11.3513 16.66Z" fill="#B6B9B9"/>
<path d="M21.3711 14.4V17.38C21.3711 20.14 19.1311 22.38 16.3711 22.38C16.1011 22.38 15.8811 22.16 15.8811 21.89V19.5C15.8811 18.22 15.4911 17.22 14.7311 16.54C14.0611 15.93 13.1511 15.63 12.0211 15.63C11.7711 15.63 11.5211 15.64 11.2511 15.67C9.4711 15.85 8.1211 17.35 8.1211 19.15V21.89C8.1211 22.16 7.9011 22.38 7.6311 22.38C4.8711 22.38 2.6311 20.14 2.6311 17.38V14.42C2.6311 13.72 3.3211 13.25 3.9711 13.48C4.2411 13.57 4.5111 13.64 4.7911 13.68C4.9111 13.7 5.0411 13.72 5.1611 13.72C5.3211 13.74 5.4811 13.75 5.6411 13.75C6.8011 13.75 7.9411 13.32 8.8411 12.58C9.7011 13.32 10.8211 13.75 12.0011 13.75C13.1911 13.75 14.2911 13.34 15.1511 12.6C16.0511 13.33 17.1711 13.75 18.3111 13.75C18.4911 13.75 18.6711 13.74 18.8411 13.72C18.9611 13.71 19.0711 13.7 19.1811 13.68C19.4911 13.64 19.7711 13.55 20.0511 13.46C20.7011 13.24 21.3711 13.72 21.3711 14.4Z" fill="#B6B9B9"/>
</svg>
