<svg width="24" height="24" viewBox="0 0 24 24" fill="none" xmlns="http://www.w3.org/2000/svg">
<path d="M13.1335 12.0001V10.0895C13.1335 7.71722 14.8134 6.74578 16.869 7.9319L18.5274 8.88724L20.1858 9.84257C22.2414 11.0287 22.2414 12.9716 20.1858 14.1577L18.5274 15.113L16.869 16.0683C14.8134 17.2545 13.1335 16.283 13.1335 13.9108L13.1335 12.0001Z" fill="#B6B9B9"/>
<path d="M10.2815 8.66H6.99675C6.66006 8.66 6.38086 8.3808 6.38086 8.04411C6.38086 7.70743 6.66006 7.42822 6.99675 7.42822L10.2815 7.42822C10.6182 7.42822 10.8974 7.70743 10.8974 8.04411C10.8974 8.3808 10.6182 8.66 10.2815 8.66Z" fill="#B6B9B9"/>
<path d="M10.2814 12.6184L2.89079 12.6184C2.5541 12.6184 2.2749 12.3392 2.2749 12.0025C2.2749 11.6658 2.5541 11.3866 2.89079 11.3866L10.2814 11.3866C10.6181 11.3866 10.8973 11.6658 10.8973 12.0025C10.8973 12.3392 10.6181 12.6184 10.2814 12.6184Z" fill="#B6B9B9"/>
<path d="M10.2814 16.5767H2.89079C2.5541 16.5767 2.2749 16.2975 2.2749 15.9608C2.2749 15.6241 2.5541 15.3449 2.89079 15.3449L10.2814 15.3449C10.6181 15.3449 10.8973 15.6241 10.8973 15.9608C10.8973 16.2975 10.6181 16.5767 10.2814 16.5767Z" fill="#B6B9B9"/>
</svg>
