<svg width="24" height="24" viewBox="0 0 24 24" fill="none" xmlns="http://www.w3.org/2000/svg">
<path d="M20.1012 9.22C18.2912 9.22 17.5512 7.94 18.4512 6.37C18.9712 5.46 18.6612 4.3 17.7512 3.78L16.0212 2.79C15.2312 2.32 14.2112 2.6 13.7412 3.39L13.6312 3.58C12.7312 5.15 11.2512 5.15 10.3412 3.58L10.2312 3.39C9.78122 2.6 8.76122 2.32 7.97122 2.79L6.24122 3.78C5.33122 4.3 5.02122 5.47 5.54122 6.38C6.45122 7.94 5.71122 9.22 3.90122 9.22C2.86122 9.22 2.00122 10.07 2.00122 11.12V12.88C2.00122 13.92 2.85122 14.78 3.90122 14.78C5.71122 14.78 6.45122 16.06 5.54122 17.63C5.02122 18.54 5.33122 19.7 6.24122 20.22L7.97122 21.21C8.76122 21.68 9.78122 21.4 10.2512 20.61L10.3612 20.42C11.2612 18.85 12.7412 18.85 13.6512 20.42L13.7612 20.61C14.2312 21.4 15.2512 21.68 16.0412 21.21L17.7712 20.22C18.6812 19.7 18.9912 18.53 18.4712 17.63C17.5612 16.06 18.3012 14.78 20.1112 14.78C21.1512 14.78 22.0112 13.93 22.0112 12.88V11.12C22.0012 10.08 21.1512 9.22 20.1012 9.22ZM12.0012 15.25C10.2112 15.25 8.75122 13.79 8.75122 12C8.75122 10.21 10.2112 8.75 12.0012 8.75C13.7912 8.75 15.2512 10.21 15.2512 12C15.2512 13.79 13.7912 15.25 12.0012 15.25Z" fill="#B6B9B9"/>
</svg>
