<svg width="24" height="24" viewBox="0 0 24 24" fill="none" xmlns="http://www.w3.org/2000/svg">
<path d="M22.5322 13.4213L21.0822 11.9713L22.4822 10.5713C22.7722 10.2813 22.7722 9.80129 22.4822 9.51129C22.3411 9.37181 22.1507 9.29359 21.9522 9.29359C21.7538 9.29359 21.5634 9.37181 21.4222 9.51129L20.0222 10.9113L18.5722 9.46129C18.4311 9.32181 18.2407 9.24359 18.0422 9.24359C17.8438 9.24359 17.6534 9.32181 17.5122 9.46129C17.2222 9.75129 17.2222 10.2313 17.5122 10.5213L18.9622 11.9713L17.4722 13.4613C17.1822 13.7513 17.1822 14.2313 17.4722 14.5213C17.6222 14.6713 17.8122 14.7413 18.0022 14.7413C18.1922 14.7413 18.3822 14.6713 18.5322 14.5213L20.0222 13.0313L21.4722 14.4813C21.6222 14.6313 21.8122 14.7013 22.0022 14.7013C22.1922 14.7013 22.3822 14.6313 22.5322 14.4813C22.8222 14.1913 22.8222 13.7213 22.5322 13.4213ZM14.0212 3.78329C12.9012 3.16329 11.4712 3.32329 10.0112 4.23329L7.09122 6.06329C6.89122 6.18329 6.66122 6.25329 6.43122 6.25329H5.00122C2.58122 6.25329 1.25122 7.58329 1.25122 10.0033V14.0033C1.25122 16.4233 2.58122 17.7533 5.00122 17.7533H6.43122C6.66122 17.7533 6.89122 17.8233 7.09122 17.9433L10.0112 19.7733C10.8912 20.3233 11.7512 20.5933 12.5512 20.5933C13.0648 20.5978 13.571 20.4704 14.0212 20.2233C15.1312 19.6033 15.7512 18.3133 15.7512 16.5933V7.41329C15.7512 5.69329 15.1312 4.40329 14.0212 3.78329Z" fill="#B6B9B9"/>
</svg>
