<svg width="24" height="24" viewBox="0 0 24 24" fill="none" xmlns="http://www.w3.org/2000/svg">
<path d="M18.0012 16.7513C17.8619 16.7513 17.7254 16.7125 17.6069 16.6393C17.4884 16.5661 17.3927 16.4613 17.3304 16.3367C17.2681 16.2121 17.2417 16.0727 17.2543 15.9339C17.2668 15.7952 17.3177 15.6627 17.4012 15.5513C18.1658 14.5256 18.5788 13.2806 18.5788 12.0013C18.5788 10.722 18.1658 9.47696 17.4012 8.4513C17.2819 8.29217 17.2306 8.09215 17.2588 7.89523C17.2869 7.69832 17.3921 7.52065 17.5512 7.4013C17.7104 7.28195 17.9104 7.23071 18.1073 7.25884C18.3042 7.28697 18.4819 7.39217 18.6012 7.5513C20.5612 10.1713 20.5612 13.8313 18.6012 16.4513C18.4512 16.6513 18.2312 16.7513 18.0012 16.7513Z" fill="#B6B9B9"/>
<path d="M19.8292 19.2513C19.6899 19.2513 19.5534 19.2125 19.4349 19.1393C19.3164 19.0661 19.2207 18.9613 19.1584 18.8367C19.0961 18.7121 19.0697 18.5727 19.0823 18.4339C19.0948 18.2952 19.1457 18.1627 19.2292 18.0513C21.8992 14.4913 21.8992 9.51129 19.2292 5.95129C19.1099 5.79216 19.0586 5.59214 19.0868 5.39523C19.1149 5.19831 19.2201 5.02064 19.3792 4.90129C19.5384 4.78195 19.7384 4.7307 19.9353 4.75883C20.1322 4.78696 20.3099 4.89216 20.4292 5.05129C23.4992 9.14129 23.4992 14.8613 20.4292 18.9513C20.2892 19.1513 20.0592 19.2513 19.8292 19.2513ZM14.0212 3.78329C12.9012 3.16329 11.4712 3.32329 10.0112 4.23329L7.09122 6.06329C6.89122 6.18329 6.66122 6.25329 6.43122 6.25329H5.00122C2.58122 6.25329 1.25122 7.58329 1.25122 10.0033V14.0033C1.25122 16.4233 2.58122 17.7533 5.00122 17.7533H6.43122C6.66122 17.7533 6.89122 17.8233 7.09122 17.9433L10.0112 19.7733C10.8912 20.3233 11.7512 20.5933 12.5512 20.5933C13.0648 20.5978 13.571 20.4704 14.0212 20.2233C15.1312 19.6033 15.7512 18.3133 15.7512 16.5933V7.41329C15.7512 5.69329 15.1312 4.40329 14.0212 3.78329Z" fill="#B6B9B9"/>
</svg>
