<svg width="33" height="33" viewBox="0 0 33 33" fill="none" xmlns="http://www.w3.org/2000/svg">
<path d="M14.8518 6.27274L8.50111 3.13325C5.07491 1.45599 2.26514 3.16192 2.26514 6.91784V28.1918C2.26514 29.8261 3.62702 31.1593 5.28994 31.1593H15.9269C16.7154 31.1593 17.3605 30.5142 17.3605 29.7257V10.2437C17.3605 8.73846 16.228 6.94651 14.8518 6.27274ZM12.3 19.3324H7.32559C6.73783 19.3324 6.25043 18.845 6.25043 18.2573C6.25043 17.6695 6.73783 17.1821 7.32559 17.1821H12.3C12.8878 17.1821 13.3752 17.6695 13.3752 18.2573C13.3752 18.845 12.9021 19.3324 12.3 19.3324ZM12.3 13.5982H7.32559C6.73783 13.5982 6.25043 13.1108 6.25043 12.523C6.25043 11.9353 6.73783 11.4479 7.32559 11.4479H12.3C12.8878 11.4479 13.3752 11.9353 13.3752 12.523C13.3752 13.1108 12.9021 13.5982 12.3 13.5982Z" fill="#56686E"/>
<path d="M30.9792 25.4824V27.5754C30.9792 29.5537 29.3736 31.1593 27.3953 31.1593H20.9013C20.1272 31.1593 19.5107 30.5429 19.5107 29.7687V26.6723C21.0446 26.8586 22.6646 26.4142 23.8257 25.4824C24.8006 26.2709 26.0478 26.7439 27.4096 26.7439C28.7429 26.7439 29.99 26.2709 30.9792 25.4824Z" fill="#56686E"/>
<path d="M30.9792 21.1961V21.2104C30.8645 23.0884 29.3306 24.5936 27.4096 24.5936C25.417 24.5936 23.8257 22.9737 23.8257 21.0097C23.8257 23.2031 21.8044 24.9663 19.5107 24.5219V16.8237C19.5107 15.9063 20.3565 15.2181 21.2597 15.4188L23.8257 15.9923L24.5139 16.15L27.4383 16.8094C28.1408 16.9528 28.7859 17.1965 29.3449 17.5548C29.3449 17.5692 29.3593 17.5692 29.3593 17.5692C29.5026 17.6695 29.646 17.7842 29.775 17.9132C30.4344 18.5727 30.8645 19.5332 30.9649 20.938C30.9649 21.0241 30.9792 21.1101 30.9792 21.1961Z" fill="#56686E"/>
</svg>
