<svg width="24" height="24" viewBox="0 0 24 24" fill="none" xmlns="http://www.w3.org/2000/svg">
<g clip-path="url(#clip0_33_4263)">
<rect width="24" height="24" rx="12" fill="#EDEDED"/>
<path d="M28.4628 0H-4.66113V3.3719H28.4628V0Z" fill="#E82818"/>
<path d="M28.6612 6.94214H-4.66113V10.314H28.6612V6.94214Z" fill="#E82818"/>
<path d="M28.6612 13.686H-4.66113V17.0579H28.6612V13.686Z" fill="#E82818"/>
<path d="M28.6612 20.6281H-4.66113V24H28.6612V20.6281Z" fill="#E82818"/>
<path d="M28.6612 3.37189H-4.66113V6.94214H28.6612V3.37189Z" fill="#F7F7F7"/>
<path d="M28.6612 10.314H-4.66113V13.6859H28.6612V10.314Z" fill="#F7F7F7"/>
<path d="M28.6612 17.0579H-4.66113V20.6281H28.6612V17.0579Z" fill="#F7F7F7"/>
<path d="M9.70194 0H-4.66113V13.686H9.70194V0Z" fill="#2A66B7"/>
<path d="M-0.250033 1.05835L0.0292199 1.65329L0.660579 1.75042L0.199203 2.22393L0.308473 2.87958L-0.250033 2.5639L-0.808539 2.87958L-0.699269 2.22393L-1.16064 1.75042L-0.529286 1.65329L-0.250033 1.05835Z" fill="#EDEDED"/>
<path d="M2.52048 1.05835L2.79973 1.65329L3.43111 1.75042L2.96971 2.22393L3.079 2.87958L2.52048 2.5639L1.96197 2.87958L2.07124 2.22393L1.60986 1.75042L2.24122 1.65329L2.52048 1.05835Z" fill="#EDEDED"/>
<path d="M5.29074 1.05835L5.56999 1.65329L6.20135 1.75042L5.73997 2.22393L5.84924 2.87958L5.29074 2.5639L4.73223 2.87958L4.8415 2.22393L4.38013 1.75042L5.01149 1.65329L5.29074 1.05835Z" fill="#EDEDED"/>
<path d="M8.061 1.05835L8.34027 1.65329L8.97163 1.75042L8.51026 2.22393L8.61953 2.87958L8.061 2.5639L7.5025 2.87958L7.61177 2.22393L7.15039 1.75042L7.78175 1.65329L8.061 1.05835Z" fill="#EDEDED"/>
<path d="M-0.250033 5.93262L0.0292199 6.52754L0.660579 6.62467L0.199203 7.0982L0.308473 7.75384L-0.250033 7.43815L-0.808539 7.75384L-0.699269 7.0982L-1.16064 6.62467L-0.529286 6.52754L-0.250033 5.93262Z" fill="#EDEDED"/>
<path d="M2.52048 5.93262L2.79973 6.52754L3.43111 6.62467L2.96971 7.0982L3.079 7.75384L2.52048 7.43815L1.96197 7.75384L2.07124 7.0982L1.60986 6.62467L2.24122 6.52754L2.52048 5.93262Z" fill="#EDEDED"/>
<path d="M5.29074 5.93262L5.56999 6.52754L6.20135 6.62467L5.73997 7.0982L5.84924 7.75384L5.29074 7.43815L4.73223 7.75384L4.8415 7.0982L4.38013 6.62467L5.01149 6.52754L5.29074 5.93262Z" fill="#EDEDED"/>
<path d="M8.061 5.93262L8.34027 6.52754L8.97163 6.62467L8.51026 7.0982L8.61953 7.75384L8.061 7.43815L7.5025 7.75384L7.61177 7.0982L7.15039 6.62467L7.78175 6.52754L8.061 5.93262Z" fill="#EDEDED"/>
<path d="M-0.250033 10.806L0.0292199 11.401L0.660579 11.4981L0.199203 11.9716L0.308473 12.6273L-0.250033 12.3116L-0.808539 12.6273L-0.699269 11.9716L-1.16064 11.4981L-0.529286 11.401L-0.250033 10.806Z" fill="#EDEDED"/>
<path d="M2.52048 10.806L2.79973 11.401L3.43111 11.4981L2.96971 11.9716L3.079 12.6273L2.52048 12.3116L1.96197 12.6273L2.07124 11.9716L1.60986 11.4981L2.24122 11.401L2.52048 10.806Z" fill="#EDEDED"/>
<path d="M5.29074 10.806L5.56999 11.401L6.20135 11.4981L5.73997 11.9716L5.84924 12.6273L5.29074 12.3116L4.73223 12.6273L4.8415 11.9716L4.38013 11.4981L5.01149 11.401L5.29074 10.806Z" fill="#EDEDED"/>
<path d="M8.061 10.806L8.34027 11.401L8.97163 11.4981L8.51026 11.9716L8.61953 12.6273L8.061 12.3116L7.5025 12.6273L7.61177 11.9716L7.15039 11.4981L7.78175 11.401L8.061 10.806Z" fill="#EDEDED"/>
<path d="M1.13522 3.49585L1.41447 4.09079L2.04585 4.18792L1.58446 4.66144L1.69375 5.31707L1.13522 5.0014L0.576715 5.31707L0.685984 4.66144L0.224609 4.18792L0.855968 4.09079L1.13522 3.49585Z" fill="#EDEDED"/>
<path d="M3.9055 3.49585L4.18476 4.09079L4.81612 4.18792L4.35474 4.66144L4.46401 5.31707L3.9055 5.0014L3.34698 5.31707L3.45627 4.66144L2.99487 4.18792L3.62623 4.09079L3.9055 3.49585Z" fill="#EDEDED"/>
<path d="M6.67599 3.49585L6.95525 4.09079L7.5866 4.18792L7.12523 4.66144L7.2345 5.31707L6.67599 5.0014L6.11749 5.31707L6.22676 4.66144L5.76538 4.18792L6.39674 4.09079L6.67599 3.49585Z" fill="#EDEDED"/>
<path d="M1.13522 8.36932L1.41447 8.96427L2.04585 9.0614L1.58446 9.53491L1.69375 10.1906L1.13522 9.87488L0.576715 10.1906L0.685984 9.53491L0.224609 9.0614L0.855968 8.96427L1.13522 8.36932Z" fill="#EDEDED"/>
<path d="M3.9055 8.36932L4.18476 8.96427L4.81612 9.0614L4.35474 9.53491L4.46401 10.1906L3.9055 9.87488L3.34698 10.1906L3.45627 9.53491L2.99487 9.0614L3.62623 8.96427L3.9055 8.36932Z" fill="#EDEDED"/>
<path d="M6.67599 8.36932L6.95525 8.96427L7.5866 9.0614L7.12523 9.53491L7.2345 10.1906L6.67599 9.87488L6.11749 10.1906L6.22676 9.53491L5.76538 9.0614L6.39674 8.96427L6.67599 8.36932Z" fill="#EDEDED"/>
</g>
<defs>
<clipPath id="clip0_33_4263">
<rect width="24" height="24" rx="12" fill="white"/>
</clipPath>
</defs>
</svg>
