<svg width="24" height="24" viewBox="0 0 24 24" fill="none" xmlns="http://www.w3.org/2000/svg">
<g filter="url(#filter0_b_33_3869)">
<rect width="24" height="24" rx="12" fill="#DE2910"/>
<path d="M11.2877 4.31294L11.9922 4.65369L12.556 4.11194L12.4497 4.88723L13.1389 5.25669L12.3693 5.39452L12.2315 6.16407L11.862 5.47492L11.0867 5.58117L11.6285 5.0174L11.2877 4.31294ZM15.7529 7.12792L15.4121 7.83143L15.9539 8.39615L15.1795 8.28895L14.8101 8.97905L14.6722 8.20855L13.9017 8.07072L14.5918 7.70126L14.4846 6.92692L15.0493 7.46867L15.7529 7.12792ZM14.8369 10.745L15.0934 11.4839L15.8754 11.5002L15.2523 11.9721L15.4791 12.7215L14.8369 12.2745L14.1946 12.7215L14.4205 11.9721L13.7974 11.5002L14.5794 11.4839L14.8369 10.745ZM11.2877 13.8845L11.9922 14.2252L12.556 13.6835L12.4497 14.4587L13.1389 14.8282L12.3693 14.966L12.2315 15.7356L11.862 15.0464L11.0867 15.1527L11.6285 14.5889L11.2877 13.8845ZM7.32897 6.20236L8.21816 8.75891L10.9231 8.81442L8.76661 10.4492L9.55052 13.0393L7.32897 11.4935L5.10742 13.0393L5.89133 10.4492L3.73486 8.81442L6.43977 8.75891L7.32897 6.20236Z" fill="#FFDE02"/>
</g>
<defs>
<filter id="filter0_b_33_3869" x="-24" y="-24" width="72" height="72" filterUnits="userSpaceOnUse" color-interpolation-filters="sRGB">
<feFlood flood-opacity="0" result="BackgroundImageFix"/>
<feGaussianBlur in="BackgroundImageFix" stdDeviation="12"/>
<feComposite in2="SourceAlpha" operator="in" result="effect1_backgroundBlur_33_3869"/>
<feBlend mode="normal" in="SourceGraphic" in2="effect1_backgroundBlur_33_3869" result="shape"/>
</filter>
</defs>
</svg>
