<svg width="24" height="24" viewBox="0 0 24 24" fill="none" xmlns="http://www.w3.org/2000/svg">
<g filter="url(#filter0_b_33_3854)">
<g clip-path="url(#clip0_33_3854)">
<rect width="24" height="24" rx="12" fill="#EDEDED"/>
<path d="M13.6667 -0.364746H10.3333V10.3333H0V13.6667H10.3333V24.1767H13.6667V13.6667H24V10.3333H13.6667V-0.364746Z" fill="#E8112D"/>
<path d="M19.2767 6.41694C19.2972 6.00071 19.3464 5.58639 19.424 5.17694C19.0322 5.22561 18.6359 5.22561 18.244 5.17694C18.322 5.58694 18.3707 6.00161 18.3914 6.41694C17.9751 6.39643 17.5608 6.3472 17.1514 6.26961C17.2 6.66144 17.2 7.05778 17.1514 7.44961C17.5608 7.37198 17.9751 7.32275 18.3914 7.30228C18.3709 7.71851 18.3216 8.13283 18.244 8.54228C18.6359 8.49361 19.0322 8.49361 19.424 8.54228C19.3464 8.13283 19.2972 7.71851 19.2767 7.30228C19.6929 7.32279 20.1073 7.37202 20.5167 7.44961C20.468 7.05778 20.468 6.66144 20.5167 6.26961C20.106 6.34828 19.692 6.39694 19.2767 6.41694Z" fill="#E8112D"/>
<path d="M5.60995 6.41694C5.63047 6.00071 5.6797 5.58639 5.75729 5.17694C5.36546 5.22561 4.96911 5.22561 4.57729 5.17694C4.65529 5.58694 4.70395 6.00161 4.72462 6.41694C4.30839 6.39643 3.89407 6.3472 3.48462 6.26961C3.53329 6.66144 3.53329 7.05778 3.48462 7.44961C3.89406 7.37198 4.30838 7.32275 4.72462 7.30228C4.70411 7.71851 4.65488 8.13283 4.57729 8.54228C4.96911 8.49361 5.36546 8.49361 5.75729 8.54228C5.67965 8.13283 5.63042 7.71851 5.60995 7.30228C6.02619 7.32279 6.4405 7.37202 6.84995 7.44961C6.80129 7.05778 6.80129 6.66144 6.84995 6.26961C6.43929 6.34828 6.02529 6.39694 5.60995 6.41694Z" fill="#E8112D"/>
<path d="M19.2767 17.6367C19.2974 18.0521 19.346 18.4661 19.424 18.8767C19.0322 18.8281 18.6359 18.8281 18.244 18.8767C18.322 18.4667 18.3707 18.0521 18.3914 17.6367C17.9751 17.6573 17.5608 17.7065 17.1514 17.7841C17.2 17.3923 17.2 16.9959 17.1514 16.6041C17.5614 16.6821 17.976 16.7307 18.3914 16.7514C18.3709 16.3352 18.3216 15.9209 18.244 15.5114C18.6359 15.5601 19.0322 15.5601 19.424 15.5114C19.3464 15.9209 19.2972 16.3352 19.2767 16.7514C19.6929 16.7309 20.1073 16.6817 20.5167 16.6041C20.468 16.9959 20.468 17.3923 20.5167 17.7841C20.1074 17.7058 19.693 17.6566 19.2767 17.6367Z" fill="#E8112D"/>
<path d="M5.60995 17.6367C5.63062 18.0521 5.67929 18.4661 5.75729 18.8767C5.36546 18.8281 4.96911 18.8281 4.57729 18.8767C4.65529 18.4667 4.70395 18.0521 4.72462 17.6367C4.30839 17.6573 3.89407 17.7065 3.48462 17.7841C3.53329 17.3923 3.53329 16.9959 3.48462 16.6041C3.89462 16.6821 4.30929 16.7307 4.72462 16.7514C4.70411 16.3352 4.65488 15.9209 4.57729 15.5114C4.96911 15.5601 5.36546 15.5601 5.75729 15.5114C5.67965 15.9209 5.63042 16.3352 5.60995 16.7514C6.02619 16.7309 6.4405 16.6817 6.84995 16.6041C6.80129 16.9959 6.80129 17.3923 6.84995 17.7841C6.44061 17.7058 6.02624 17.6566 5.60995 17.6367Z" fill="#E8112D"/>
</g>
</g>
<defs>
<filter id="filter0_b_33_3854" x="-24" y="-24" width="72" height="72" filterUnits="userSpaceOnUse" color-interpolation-filters="sRGB">
<feFlood flood-opacity="0" result="BackgroundImageFix"/>
<feGaussianBlur in="BackgroundImageFix" stdDeviation="12"/>
<feComposite in2="SourceAlpha" operator="in" result="effect1_backgroundBlur_33_3854"/>
<feBlend mode="normal" in="SourceGraphic" in2="effect1_backgroundBlur_33_3854" result="shape"/>
</filter>
<clipPath id="clip0_33_3854">
<rect width="24" height="24" rx="12" fill="white"/>
</clipPath>
</defs>
</svg>
