<svg width="24" height="24" viewBox="0 0 24 24" fill="none" xmlns="http://www.w3.org/2000/svg">
<g filter="url(#filter0_b_33_3867)">
<rect width="24" height="24" rx="12" fill="#EEEEEE"/>
<path d="M14.2278 8.81665C13.3835 8.22555 12.3389 7.99407 11.3238 8.17312C10.3088 8.35217 9.40649 8.92709 8.81534 9.77141C8.5362 10.194 8.433 10.7088 8.52771 11.2063C8.62242 11.7038 8.90756 12.1447 9.32243 12.4352C9.73731 12.7257 10.2492 12.8427 10.7491 12.7615C11.2489 12.6803 11.6974 12.4071 11.999 12.0003C12.1453 11.7912 12.3315 11.6131 12.5467 11.476C12.762 11.3389 13.0021 11.2455 13.2534 11.2012C13.5048 11.1569 13.7623 11.1625 14.0115 11.2178C14.2606 11.273 14.4965 11.3768 14.7055 11.5232C14.9146 11.6696 15.0927 11.8557 15.2298 12.071C15.3669 12.2862 15.4603 12.5264 15.5046 12.7777C15.5489 13.029 15.5432 13.2866 15.488 13.5358C15.4327 13.7849 15.329 14.0207 15.1826 14.2298C15.4754 13.8117 15.6829 13.34 15.7934 12.8416C15.9038 12.3433 15.9151 11.8281 15.8264 11.3254C15.7378 10.8228 15.5509 10.3425 15.2767 9.91204C15.0024 9.48158 14.646 9.10936 14.2278 8.81665Z" fill="#C60C30"/>
<path d="M14.7053 11.5234C14.2832 11.2278 13.761 11.1119 13.2535 11.2013C12.746 11.2907 12.2948 11.5781 11.9991 12.0001C11.6983 12.4091 11.2493 12.6842 10.7483 12.7665C10.2473 12.8489 9.734 12.7319 9.31811 12.4407C8.90223 12.1494 8.6168 11.707 8.52287 11.208C8.42894 10.7091 8.53396 10.1932 8.81547 9.77063C8.51415 10.1883 8.29884 10.6616 8.18205 11.1632C8.06527 11.6648 8.04934 12.1846 8.13519 12.6924C8.22104 13.2002 8.40696 13.6859 8.68214 14.1212C8.95732 14.5565 9.31627 14.9328 9.73814 15.2281C10.16 15.5235 10.6364 15.7321 11.1396 15.8418C11.6427 15.9515 12.1627 15.96 12.6692 15.867C13.1758 15.774 13.6588 15.5812 14.0901 15.2999C14.5215 15.0186 14.8927 14.6543 15.1821 14.2283C15.3285 14.0195 15.4323 13.7838 15.4876 13.5348C15.5429 13.2858 15.5485 13.0283 15.5043 12.7771C15.46 12.5259 15.3666 12.2858 15.2296 12.0707C15.0925 11.8556 14.9143 11.6696 14.7053 11.5234Z" fill="#003478"/>
<path d="M16.1018 16.9049L17.3506 15.4164L17.8468 15.8329L16.5979 17.3214L16.1018 16.9049ZM17.7665 14.9209L19.0153 13.4331L19.5115 13.8496L18.2626 15.3374L17.7665 14.9209ZM17.0941 17.7392L18.3429 16.2514L18.8391 16.6679L17.5903 18.1557L17.0941 17.7392ZM18.7601 15.7533L20.0102 14.2654L20.5064 14.6826L19.2562 16.1698L18.7601 15.7533ZM18.0858 18.5722L19.3359 17.0844L19.8314 17.5009L18.582 18.9887L18.0858 18.5722ZM19.7511 16.5869L20.9993 15.0971L21.4961 15.5136L20.2479 17.0034L19.7511 16.5869ZM19.7537 7.41368L20.2499 6.99718L21.5 8.48633L21.0032 8.90282L19.7537 7.41368ZM18.0877 5.42772L18.5839 5.01123L19.8327 6.50037L19.3359 6.91622L18.0877 5.42772ZM17.0948 6.26201L17.5909 5.84551L20.5057 9.31867L20.0096 9.73516L17.0948 6.26201ZM16.1024 7.0937L16.5992 6.6772L17.8474 8.1657L17.3513 8.58154L16.1024 7.0937ZM17.7671 9.079L18.2633 8.66251L19.5134 10.1504L19.0179 10.5669L17.7671 9.079ZM4.48531 13.8489L4.98147 13.4324L7.89563 16.9062L7.39882 17.3227L4.48531 13.8489ZM3.49427 14.6819L3.98979 14.2661L5.23927 15.7546L4.74246 16.1711L3.49427 14.6819ZM5.15701 16.6679L5.65317 16.2514L6.9033 17.7392L6.40714 18.1557L5.15701 16.6679ZM2.50065 15.5142L2.99681 15.0978L5.91162 18.5709L5.41481 18.9874L2.50065 15.5142ZM2.5 8.48503L5.41351 5.01188L5.91032 5.42772L2.99552 8.90152L2.5 8.48503ZM3.49233 9.31867L6.40714 5.84486L6.9033 6.26136L3.98849 9.73451L3.49233 9.31867ZM4.48531 10.151L7.40011 6.6772L7.89628 7.0937L4.98147 10.5675L4.48531 10.151Z" fill="#292F33"/>
</g>
<defs>
<filter id="filter0_b_33_3867" x="-24" y="-24" width="72" height="72" filterUnits="userSpaceOnUse" color-interpolation-filters="sRGB">
<feFlood flood-opacity="0" result="BackgroundImageFix"/>
<feGaussianBlur in="BackgroundImageFix" stdDeviation="12"/>
<feComposite in2="SourceAlpha" operator="in" result="effect1_backgroundBlur_33_3867"/>
<feBlend mode="normal" in="SourceGraphic" in2="effect1_backgroundBlur_33_3867" result="shape"/>
</filter>
</defs>
</svg>
