<svg width="24" height="24" viewBox="0 0 24 24" fill="none" xmlns="http://www.w3.org/2000/svg">
<g filter="url(#filter0_b_33_3865)">
<g clip-path="url(#clip0_33_3865)">
<rect width="24" height="24" rx="12" fill="#EDEDED"/>
<rect width="24" height="19.0413" transform="translate(28.562) rotate(90)" fill="#D52B1E"/>
<rect width="24" height="14.0826" transform="translate(9.52075) rotate(90)" fill="#006600"/>
<path d="M9.52055 4.6391C7.56832 4.6391 5.69605 5.41462 4.31562 6.79505C2.93519 8.17548 2.15967 10.0478 2.15967 12C2.15967 13.9522 2.93519 15.8245 4.31562 17.2049C5.69605 18.5853 7.56832 19.3609 9.52055 19.3609C11.4728 19.3609 13.345 18.5853 14.7255 17.2049C16.1059 15.8245 16.8814 13.9522 16.8814 12C16.8814 10.0478 16.1059 8.17548 14.7255 6.79505C13.345 5.41462 11.4728 4.6391 9.52055 4.6391ZM3.89592 8.86609L5.36993 10.3401L3.10646 11.4718C3.17951 10.5567 3.44876 9.66793 3.89592 8.86609ZM3.10646 12.5272L7.15495 14.5579L4.66513 16.2178L4.67801 16.2371C3.76883 15.2016 3.21772 13.9007 3.10646 12.5272ZM8.60044 18.3671C7.75698 18.2468 6.94611 17.959 6.21551 17.5206H8.60044V18.3671ZM8.60044 16.6005H5.74902L8.60044 14.6996V16.6005ZM8.60044 13.5936L8.04193 13.9663L4.10846 12L6.05541 11.0265L8.60044 13.5706V13.5936ZM8.60044 12.2696L5.34049 9.00962L8.60044 9.55249V12.2696ZM8.60044 8.59649L4.52251 7.94045C5.54288 6.68535 6.99911 5.86129 8.60044 5.63282V8.59649ZM15.1452 8.86609C15.5925 9.66821 15.8617 10.5573 15.9346 11.4728L13.6712 10.341L15.1452 8.86609ZM10.4407 5.63282C12.0419 5.86164 13.498 6.68563 14.5186 7.94045L10.4407 8.59649V5.63282ZM10.4407 9.55249L13.7006 9.0087L10.4407 12.2696V9.55249ZM10.4407 13.5706L12.9848 11.0265L14.9326 12L11.0001 13.9663L10.4407 13.5936V13.5706ZM10.4407 18.3671V17.5206H12.8256C12.095 17.959 11.2841 18.2468 10.4407 18.3671ZM10.4407 16.6005V14.6996L13.2921 16.6005H10.4407ZM14.364 16.2371L14.3769 16.2178L11.8871 14.5579L15.9356 12.5272C15.8235 13.9005 15.2725 15.2012 14.364 16.2371Z" fill="#FFCC4D"/>
<path d="M5.84009 7.39886V13.8396C5.84009 14.8157 6.22785 15.7519 6.91806 16.4421C7.60828 17.1323 8.54441 17.5201 9.52053 17.5201C10.4966 17.5201 11.4328 17.1323 12.123 16.4421C12.8132 15.7519 13.201 14.8157 13.201 13.8396V7.39886H5.84009Z" fill="#D52B1E"/>
<path d="M6.76025 8.31934V13.84C6.76025 14.5721 7.05107 15.2742 7.56874 15.7918C8.0864 16.3095 8.7885 16.6003 9.52058 16.6003C10.2527 16.6003 10.9548 16.3095 11.4724 15.7918C11.9901 15.2742 12.2809 14.5721 12.2809 13.84V8.31934H6.76025Z" fill="#EDEDED"/>
<path d="M7.68042 11.0792H11.3609V12.9194H7.68042V11.0792Z" fill="#829ACD"/>
<path d="M8.60034 10.1595H10.4406V13.8399H8.60034V10.1595Z" fill="#829ACD"/>
<path d="M6.76025 11.0797H7.68036V12.9199H6.76025V11.0797ZM8.60047 11.0797H10.4407V12.9199H8.60047V11.0797ZM11.3608 11.0797H12.2809V12.9199H11.3608V11.0797ZM8.60047 13.84H10.4407V15.6802H8.60047V13.84ZM8.60047 8.31934H10.4407V10.1596H8.60047V8.31934Z" fill="#003399"/>
</g>
</g>
<defs>
<filter id="filter0_b_33_3865" x="-24" y="-24" width="72" height="72" filterUnits="userSpaceOnUse" color-interpolation-filters="sRGB">
<feFlood flood-opacity="0" result="BackgroundImageFix"/>
<feGaussianBlur in="BackgroundImageFix" stdDeviation="12"/>
<feComposite in2="SourceAlpha" operator="in" result="effect1_backgroundBlur_33_3865"/>
<feBlend mode="normal" in="SourceGraphic" in2="effect1_backgroundBlur_33_3865" result="shape"/>
</filter>
<clipPath id="clip0_33_3865">
<rect width="24" height="24" rx="12" fill="white"/>
</clipPath>
</defs>
</svg>
